/* XPM */
static char *doors_removebg_preview__1___1_1706967646[] = {
/* columns rows colors chars-per-pixel */
"45 45 208 2 ",
"   c None",
".  c #0E1415",
"X  c #1B1511",
"o  c #1B1916",
"O  c #1C1D1D",
"+  c #0F0C0F",
"@  c #371A0E",
"#  c #281B15",
"$  c #2D140A",
"%  c #1C201F",
"&  c #25221E",
"*  c #3F281B",
"=  c #0C2727",
"-  c #0C2827",
";  c #0E292A",
":  c #1B2423",
">  c #1A2A29",
",  c #142526",
"<  c #163C3B",
"1  c #193837",
"2  c #17302E",
"3  c #252525",
"4  c #3A2D24",
"5  c #2D332E",
"6  c #28383A",
"7  c #323939",
"8  c #353936",
"9  c #4B1C05",
"0  c #5A1E00",
"q  c #5D2306",
"w  c #572207",
"e  c #492513",
"r  c #562B16",
"t  c #4C210D",
"y  c #632406",
"u  c #6D2C0B",
"i  c #6A2706",
"p  c #762C05",
"a  c #792D06",
"s  c #722D0A",
"d  c #7D320A",
"f  c #6B3318",
"g  c #783A1A",
"h  c #573523",
"j  c #7B4C2F",
"k  c #775032",
"l  c #1B4545",
"z  c #1D5151",
"x  c #234B4C",
"c  c #275858",
"v  c #3A4447",
"b  c #276B6B",
"n  c #296767",
"m  c #347273",
"M  c #404A4C",
"N  c #694E42",
"B  c #695045",
"V  c #6B5E55",
"C  c #765A43",
"Z  c #75685B",
"A  c #495F64",
"S  c #4A6469",
"D  c #49797C",
"F  c #57747A",
"G  c #75716A",
"H  c #6C7E7E",
"J  c #787673",
"K  c #83350E",
"L  c #8A380E",
"P  c #843710",
"I  c #853811",
"U  c #8C3B13",
"Y  c #8C3F19",
"T  c #803D1F",
"R  c #913E13",
"E  c #8C401B",
"W  c #94431B",
"Q  c #994419",
"!  c #98441A",
"~  c #A3491C",
"^  c #A74B1D",
"/  c #8C4220",
"(  c #804326",
")  c #924520",
"_  c #994720",
"`  c #9C4922",
"'  c #9B4D29",
"]  c #944B26",
"[  c #9C512C",
"{  c #AC4F21",
"}  c #A34D25",
"|  c #AE5223",
" . c #A2522D",
".. c #AB542C",
"X. c #B45524",
"o. c #B85625",
"O. c #BD5C2D",
"+. c #AB5B37",
"@. c #AC5C39",
"#. c #A65836",
"$. c #B35F3B",
"%. c #B55C34",
"&. c #B3613D",
"*. c #BB623B",
"=. c #AF603C",
"-. c #C05D2A",
";. c #C4653C",
":. c #CD6C3C",
">. c #CD6734",
",. c #D26733",
"<. c #D16934",
"1. c #D26C39",
"2. c #DB6F3A",
"3. c #DC713C",
"4. c #C7602E",
"5. c #E1723B",
"6. c #895E47",
"7. c #955E47",
"8. c #A86345",
"9. c #A86548",
"0. c #B66442",
"q. c #BB6743",
"w. c #BC6946",
"e. c #BD6B49",
"r. c #BC7659",
"t. c #BB7E62",
"y. c #C36A45",
"u. c #CB6D46",
"i. c #C46D48",
"p. c #CC6D48",
"a. c #D26F46",
"s. c #D06F48",
"d. c #CD7245",
"f. c #CC7348",
"g. c #C77047",
"h. c #D57346",
"j. c #DA7546",
"k. c #DD7847",
"l. c #D57449",
"z. c #DD7848",
"x. c #D6784C",
"c. c #D47D55",
"v. c #E47945",
"b. c #EA7C45",
"n. c #EB7C47",
"m. c #F07E45",
"M. c #36807E",
"N. c #BA8168",
"B. c #D3835C",
"V. c #D08B67",
"C. c #367F81",
"Z. c #5E7D84",
"A. c #617E87",
"S. c #368B8C",
"D. c #369191",
"F. c #358F92",
"G. c #3CA1A3",
"H. c #438588",
"J. c #5B858C",
"K. c #569A9D",
"L. c #409D9F",
"P. c #65848A",
"I. c #648A92",
"U. c #698A91",
"Y. c #649199",
"T. c #6D949C",
"R. c #69979C",
"E. c #70949D",
"W. c #5A9DA2",
"Q. c #4E9CA0",
"!. c #669DA4",
"~. c #6A9CA4",
"^. c #6C96A0",
"/. c #47A8A8",
"(. c #5AA8AC",
"). c #5AAEB3",
"_. c #4BB5B6",
"`. c #59B5B9",
"'. c #47AFB0",
"]. c #66A4AC",
"[. c #69A2A9",
"{. c #65A7A9",
"}. c #64ACB3",
"|. c #62B1B6",
" X c #64B4BA",
".X c #62BBBE",
"XX c #5BBFC3",
"oX c #61BDC1",
"OX c #4ECCCC",
"+X c #4BC5C5",
"@X c #5EC1C5",
"#X c #5EC5CA",
"$X c #5DCBCE",
"%X c #54C8CA",
"&X c #4DCFD0",
"*X c #5DCED2",
"=X c #4CD3D2",
"-X c #4FD9D8",
";X c #55D4D6",
":X c #5BD2D6",
">X c #54D6D8",
",X c #5CD5D9",
"<X c #53DBDC",
"1X c #59DBDC",
"2X c #60C6CA",
"3X c #60CAD0",
"4X c #51DFE0",
"5X c #51E1E2",
/* pixels */
"                                    c b b b b b b b c                                     ",
"                            , m F.D.OX1X@XXX@XXX@X<X=XD.F.S.>                             ",
"                      x x G._.). X X|.$XXXR.^.T. X*X X X X).'.G.z x                       ",
"                  n n /.%X:X*X].Y.T.T.K.Z.A S A D Q.T.T.E.[.$X,X%X_.b n                   ",
"              2 S.-X:X[.^.T.(.XXD 7 7 4 9 9 9 9 9 * 7 7 m XX}.^.^.!.$X5X/.1               ",
"            c /.|.|.2X XJ.F M 5 e 0 0 a U P K P P s 0 0 t 5 8 F Z. X$X}.}./.n             ",
"          m (.{.E.E.[.H.8 @ w i g ` K X.h.0.0.0.0.] L { R i q @ 4 H.!.T.T.[.`.m           ",
"        < +X:X}.~.Y.v e p K )  .$.u.` o.k.q.w.w.e.' } m.:...` K p e v P.R.{.*X>Xl         ",
"      . '.|.}.2XJ.8 w p 4.2.w.w.w.u.Q o.z.q.e.q.e.' ~ n.u.p.y.;.O.p 0 4 D 2X}.}.+X<       ",
"      m `.[.E.Y.3 9 Y K <.v.u.y.u.a._ o.z.q.e.y.y.] ~ n.y.u.a.a.;.L Q y # I.E.~.2XS.6     ",
"    < ;X X[.R.v e s +.E ,.h.d.y.u.i.) o.z.y.s.u.e.] ^ v.q.y.a.a.$.Q 5.K e 7 I.[.{.:Xx     ",
"  1 _.).2X3XD # q [ 0.E <.h.u.u.u.u.) o.j.u.a.u.q.' ^ n.w.y.p.a.+.Q b.$.i # S #X3X|.+Xl   ",
"  2 =X].~.Y.3 w W =.w.E >.h.y.u.u.y.) o.z.y.a.u.w.' ~ n.w.e.y.u.$.Q b.*.] y # J.^.[.<X<   ",
"  x %X[.T.Z.& y +.w.0.Y >.h.q.d.y.e.) o.z.y.a.u.i.] ~ n.w.w.y.a.%.Q b.y.&.u # F T.!.:Xc   ",
"; +X#X.X{.5 w W &.w.w.Y <.h.q.y.i.w.) o.v.u.u.i.u.] ~ v.q.e.y.a.;.Q b.y.0.E q 3 (..X@X&X< ",
"; =X:X#X`., q 3.d.w.w.Y <.h.w.w.e.q.) o.n.p.i.u.p.' ~ n.e.e.y.a.*.Q b.y.w.&.u X (.2X%X5X< ",
"- OX[.T.I.& y >.*.=.@.I O.;.@.@.@.@.Y { 1.$.$.$.$._ R a.$.@.$.$. .W 1.&.@.#.u # J.E.R.;X< ",
"- OX].T.G ' ^ X.| | | | X.X.X.X.| | { | o.X.| X.X.{ { o.X.{ | | | | X.| X.| ^ ' Z U.[.;X< ",
"= =X,X.Xk 5.v.j.x.V.c.h.h.h.l.V.B.j.j.l.l.l.c.V.l.j.l.l.h.c.V.x.h.j.h.c.V.x.j.u.g {.:X4X< ",
"- OXoX{.C >.%.+.+.9.=.+.+.+.+.9.8.+.@.+.+.+.8.8.@.@.@.+.+.8.9.@.+.+.#.=.9.@.@.#.j R. X<X< ",
"- OX{.T.P.h p a p a a p p p p a p p p p a p p a p p s a a p p p p p a p p p u r H T.~.;X< ",
"- OX|.!.K.% y o...[ [ I | O...[  .' U Q O... .' ..W W O. . .'  ._ L O.....} y X J.~.{.>X< ",
"= =X1X,X@X> y 5.f.w.w.E ,.v.h.y.w.e.) o.n.p.i.e.y...^ n.w.w.w.w.=.! b.p.h.*.u O `.,X1X5X< ",
"= OX}.~.Y.% y 3.g.7.=.E ,.h.u.y.e.e.) o.v.p.u.w.u...^ n.w.w.w.w.@.Q b.h.p.:.s X J.~.{.;X< ",
"= OX].^.I.O y 3.6.J V g ,.h.u.u.y.w.) X.v.y.u.u.a.} ~ n.w.w.u.w.+.Q b.a.y.;.u X Z.E.!.>X< ",
"= =XoX X(.: y j.6.J V f ,.h.w.u.u.w.) o.z.y.p.a.p.' ~ b.w.y.u.w.+.Q m.h.y.;.s X K..X.X<X< ",
"= =X,X3XXX> y 5.i.B 7.U <.h.0.y.u.y.) o.z.q.y.a.p.] ^ v.q.y.u.w.+.Q 5.j.u.;.s o (.*X:X<X< ",
"= OX!.^.P.# y 5.g.B 7.W <.h.q.w.u.u.) o.z.q.u.a.p.' ^ n.w.y.a.w.$.Q m.a.h.*.u X J.T.!.,X< ",
"= &X!.^.I.O y 3.g.N 7.R >.l.w.w.y.u.) o.k.q.y.h.p.' ~ b.w.y.u.w.@.Q b.u.u.0.u X Z.E.[.;X< ",
"= =X,X*XXX, y 5.g.B 7.E <.l.0.w.y.f.` o.k.w.i.a.a.] ~ b.y.u.u.u.@.Q b.y.a.;.s o (.$X*X5X< ",
"= &XoX X(.: y j.6.J V f <.h.w.w.w.u.` o.z.w.y.h.p.' ~ v.y.a.h.u.@.Q n.u.a.;.s X K. X`.<X< ",
"= OX~.E.P.O y 2.6.J V f <.h.w.w.w.d.Q o.z.q.i.u.y.' ~ n.u.a.u.a.@.Q v.y.p.*.s X A.E.~.;X< ",
"= &X}.~.Y.% y 5.g.7.8.E ,.h.0.w.w.y.` o.k.q.w.w.e.' ~ b.a.u.y.u.%.Q v.y.i.&.u o J.[.{.>X< ",
"= =X1X,X#X> y 3.d.w.q.E <.h.0.w.w.u.` o.k.w.w.e.w.' ^ B.d.w.y.u.$.Q b.y.e.&.u O `.:X1X5X< ",
"= OX}.~.Y.% y 5.u.w.0.Y >.h.w.w.i.g.! X.k.0.e.0.q.} ^ 5.u.y.y.g.*.Q b.y.w.&.u X J.[.{.>X< ",
"= OX].^.P.h p ^ ~ _ ` K ~ } ] ! Q ` U ! { _ _ _ Q R R o.} ` ! ` Q L | ! ! ! d r H T.!.;X< ",
"; &XoX{.C >.1.1.1.d.:.<.<.<.:.f.d.>.1.<.1.1.:.f.1.1.1.1.>.1.f.:.1.1.>.:.f.:.1.;.j R..X<X< ",
"= =X:X.Xk 5.l.w.e.N.r.w.y.e.e.N.r.y.e.y.e.e.r.t.e.y.w.y.e.r.N.i.w.y.e.i.N.i.y.*.g {.:X5X< ",
"; OX].T.G ] W Y E E E E E E E E E E E E E E E Y E E E E E E E U W E E E / E E j Z U.~.;X< ",
"= OX[.R.U.3 0 U L E I p L L I L I I a K U K P K I d a R I L I I d a U I I I y # P.E.!.;X< ",
"= =X*XoX`.> y 3.:.d.q.U <.u.*.y.y.w.E X.h.w.u.u.;.' { 5.y.u.q.u.+.W 5.y.0.$.u o (.@X#X5X< ",
"= =XoXoX(.: y 5.d.d.y.Y ,.h.w.u.i.w.) X.k.u.u.u.g.{ ^ 5.y.y.u.p.@.Q b.q.e.8.u o K..XoX<X< ",
"; OX!.^.U.O y 5.d.y.g.W ,.h.y.u.w.0.W X.v.u.u.u.h.[ ^ B.q.w.p.w.@.Q b.y.e.&.u X A.T.~.;X< ",
"; +X!.Y.P.O q 2.u.*.y.U >.j.y.w.w.q./ X.v.u.q.q.u...Q v.q.q.w.w.#.Q v.y.0.&.u X Z.T.R.OX< ",
"  c 6 6 6 + $ / ) / / t g Q ) / / / r f _ ) / E E f r _ / / / / g t _ / / T @ + 5 6 6 c   "
};
