/* XPM */
static char *hole_removebg_preview__2___2___1_1706461754[] = {
/* columns rows colors chars-per-pixel */
"45 45 144 2 ",
"   c None",
".  c #020202",
"X  c #090505",
"o  c #0B0906",
"O  c #070508",
"+  c #0D0C0A",
"@  c #110C0B",
"#  c #16130E",
"$  c #18130E",
"%  c #151512",
"&  c #1A1613",
"*  c #1B1914",
"=  c #1E1D19",
"-  c #221B14",
";  c #231E1A",
":  c #232016",
">  c #25231B",
",  c #2B261D",
"<  c #2D291D",
"1  c #302D1C",
"2  c #272220",
"3  c #292321",
"4  c #2F2921",
"5  c #302B24",
"6  c #353324",
"7  c #3B3525",
"8  c #3D3825",
"9  c #363329",
"0  c #3A352B",
"q  c #3D3B2B",
"w  c #403927",
"e  c #423C2C",
"r  c #433D33",
"t  c #493F34",
"y  c #4E482F",
"u  c #524E2F",
"i  c #464233",
"p  c #4C4534",
"a  c #4D4A36",
"s  c #4A4239",
"d  c #4D493A",
"f  c #544C35",
"g  c #51473B",
"h  c #544D3C",
"j  c #565036",
"k  c #5C5535",
"l  c #5D5835",
"z  c #57533C",
"x  c #5C5539",
"c  c #5C5A3E",
"v  c #60563F",
"b  c #625B3C",
"n  c #6C5F3D",
"m  c #6A6337",
"M  c #66613B",
"N  c #6A623D",
"B  c #70653E",
"V  c #564D43",
"C  c #584E46",
"Z  c #555142",
"A  c #5C5341",
"S  c #5C5946",
"D  c #5D594A",
"F  c #635D43",
"G  c #695E42",
"H  c #675D4A",
"J  c #685D49",
"K  c #676343",
"L  c #6B6343",
"P  c #6F6A43",
"I  c #66624B",
"U  c #6B644C",
"Y  c #6E684F",
"T  c #716641",
"R  c #726943",
"E  c #736A49",
"W  c #796E4B",
"Q  c #7B724E",
"!  c #666354",
"~  c #6E6551",
"^  c #6F6852",
"/  c #716751",
"(  c #736A54",
")  c #7B6D57",
"_  c #706658",
"`  c #736A5A",
"'  c #7C6E58",
"]  c #7D7454",
"[  c #77715F",
"{  c #7C745C",
"}  c #7D7662",
"|  c #7F7964",
" . c #827554",
".. c #847954",
"X. c #81725B",
"o. c #85795C",
"O. c #8A7E5D",
"+. c #857A61",
"@. c #8A7F64",
"#. c #857D6D",
"$. c #8C7F6B",
"%. c #8D825D",
"&. c #92845E",
"*. c #8E8363",
"=. c #8C836A",
"-. c #928464",
";. c #958966",
":. c #9A8C66",
">. c #93856A",
",. c #958B6B",
"<. c #9A8B6A",
"1. c #9C916D",
"2. c #928971",
"3. c #9C8E71",
"4. c #9D9172",
"5. c #A28F6F",
"6. c #A2936E",
"7. c #A49572",
"8. c #A89577",
"9. c #A59974",
"0. c #AB9C76",
"q. c #A59A79",
"w. c #AC9D7A",
"e. c #ADA074",
"r. c #ACA17B",
"t. c #B2A27D",
"y. c #A79C81",
"u. c #AB9E83",
"i. c #ACA182",
"p. c #AAA38C",
"a. c #B3A282",
"s. c #B8A680",
"d. c #B7A983",
"f. c #BCAE85",
"g. c #BFB187",
"h. c #BFB28A",
"j. c #C2B187",
"k. c #C5B58C",
"l. c #C9B78C",
"z. c #CAB98E",
"x. c #CCBB93",
"c. c #D0BF94",
"v. c #D1C194",
"b. c #D2C299",
/* pixels */
"                                                                                          ",
"                                                                                          ",
"                                                                                          ",
"                                                                                          ",
"                                                                                          ",
"                                                                                          ",
"                                                                                          ",
"                                                                                          ",
"                                                        . . . . . .                       ",
"                                                        O . . . . .                       ",
"                                                        . . . . . .                       ",
"        + + + + + +                                   + + 9 q d ~ ^ `                     ",
"      . . . . . O . . . .                   . . . . . . O h K ] 0.w.o.I                   ",
"      . . . . . . . . . .                 . . . . . . . O j N Q 0.0...K                   ",
"      . * , > # % $ # # + +               O o # # # $ # & s b Q 0.w.%.]                   ",
"      O ! 4.,.K c b b c * . . . . O . . . . > c b b b b c - 7 Q 0.w.w.:.L U K P K         ",
"      O ( r.6.B m L N b & . . . . . . . . . , m N m m m b & 6 Q q.w.w.:.m n N M N         ",
"      o ( t.1.R N N N b & . . . . . . . . . , m N K I L K & 6 Q w.w.r.;.B N N m L         ",
"      ! >.r.1.R N N N K i 8 0 7 o . $ q 0 0 p N N w 1 < < + 6 R O.:.6.O.B O.&.%.*.        ",
"    ,.q.w.0.6.R N N N K K L U F # . > K L L L N N * . . . . 6 N N O.-.o.R 8.e.w.7.Y K     ",
"    >.q.w.w.6.R N N N N N n m b @ . - N N N n N N * . . . . 6 N T O.-...R 6.w.w.4.P m     ",
"    >.0.7.7.:.B N N L N N N m b - + < n m m n G x , # % # . 6 L T ..O.o. .8.0.w.7.E B E   ",
"    >.>. .T N N N N N N L N N G b v b L N m G x % D | | [ = 6 B N B B  .6.0.w.6.-.*.*.{ I ",
"    -.-.W M N N N L N N M N N L L L N N L m B k + I =.*.*.= 6 B m n n  .0.0.w.6.-.-.-.] K ",
"    -.@.W n m n N N N N L N N N N N m N N N B z % I -.&.O.; 6 L N L n  .w.w.0.7.-.>.-.] K ",
"    >.w.6.5.&.m N N N N N N N N N m m N N N j 9 t ] <.4.<.A z x 0 b R %.w.0.w.7.-.*.-.K 6 ",
"    <.x.v.b.g.B b L N N N N N N N N N N N L e * +.-.3.w.w.,.] y + j ..<.0.w.0.6.-.*.-.g X ",
"    <.z.v.v.j.R N N N N L N N N N N N N N L q * o.-.5.w.w.<. .y @ j { <.w.8.0.7.-.@.;.a . ",
"    6.z.v.v.j.W L N N N M L N N N K N N N N e % o.-.5.0.0.<. .f $ a ] <.0.0.0.7.-.$.-.g . ",
"+.8.z.c.b.b.l.9.W M N m N N N N N N N m m N e & o.7.0.0.0.>.@.X.h * A <.w.0.1.,.-.-.-.g o ",
" .8.c.c.v.v.z.r.Q N N N N N N L L N L M m N w $ o.8.0.0.8.:.@.O.F % h 1.w.w.<.*.*.*.;.f o ",
"..8.c.c.v.v.x.e.Q N N L L N N N N N N N L U e & o.7.0.0.0.5.@.O.b % h :.w.w.<.>.>.=.-.a o ",
"] 9.c.c.c.c.z.w.-.W b e T R N N N N L b e e > * *.0.w.0.0.>.-.O.E % p O.;.6.<.) V V X._ d ",
"..9.x.c.c.c.x.t.w.%.u + ^ ] N M N N N l @ . . * 4.w.0.0.0.<.-.-.+.& 8 n L O.>.x . . H 4.w.",
"..7.b.c.c.c.x.w.r.*.f + E Q M N N N L k + . . & <.w.w.0.0.>.$.>.+.& 8 m L @.>.C . . J 8.u.",
"o.9.x.c.c.c.z.t.0.*.a $ ( ..N R L L F b $ o X & 4.w.0.0.0.;.-.*.+.& w B I +.#.C o @ L 5.u.",
"8.6.6.z.c.l.t.0.6.A , _ a.j.f.d.9.p e 3.#.} i * 1.w.w.0.0.>.-.-.+.& F O.b < - r [ #.4.w.  ",
"e.8.:.l.c.j.0.0.:.d * -.k.c.b.x.t.r 9 r.u.4.Z * 1.w.w.w.0.:.*.-.+.& J :.v @ . 9 >.q.w.i.  ",
"w.8.:.l.v.l.w.t.4.d * O.j.v.b.x.a.i 9 q.w.1.V * 3.w.w.w.w.;.-.*.o.& J :.b o . 6 >.w.w.    ",
"t.9.5.j.l.t.7.6.^ s i :.k.v.x.j.a.i 9 q.7.:.I r -.9.w.7.7.>.*.-.@.7 _ 5.W r 0 S 4.u.      ",
"r.0.w.r.e.7.-.-.< r 2.w.z.b.k.e.w.i 9 q.>.-.-.@.P :.1.-.-.-.-.&.%.U =.r.w.w.y.w.r.        ",
"i.r.0.w.0.6.-.@.2 r <.w.k.b.l.0.w.t 9 q.-.-.-.O.L <.6.-.-.-.-.%.%.P *.e.e.0.r.w.w.        ",
"p.y.r.u.w.6.-.$.2 q <.w.x.c.l.0.w.r 9 9.;.&.&.O.U <.7.-.&.*.=.=.%.P *.r.r.r.w.w.i.        ",
"    r.  t.0.7.*.2 s q.w.t.s.t.0.5.0 5 >.&.-.-.X.< ^ ;.-.%.Q p 7 E ;.9.w.r.  i.u.  p.      ",
"    i.  w.w.0.*.2 d w.w.0.w.0.0.>.7 5 -.-.-.-.{ # H -.*.*.R 1 & K 1.r.r.w.  p.a.  u.      "
};
