/* XPM */
static char *_2d8f9c7a4154d3fad2cd628e4b4757eDMEKfdBGeQHO3IkC[] = {
/* columns rows colors chars-per-pixel */
"45 45 252 2 ",
"   c #392B19",
".  c #3D391C",
"X  c #38381A",
"o  c #36320A",
"O  c #3C3728",
"+  c #3A2C21",
"@  c #443C1C",
"#  c #48371A",
"$  c #42350B",
"%  c #453B25",
"&  c #4B3D26",
"*  c #443C2C",
"=  c #4D3E2C",
"-  c #433524",
";  c #553B28",
":  c #4B3D34",
">  c #473C37",
",  c #4B362E",
"<  c #3A481A",
"1  c #3D5B1B",
"2  c #395618",
"3  c #31500F",
"4  c #3D6716",
"5  c #356B13",
"6  c #3A4726",
"7  c #3C5626",
"8  c #3E5333",
"9  c #3B6221",
"0  c #46481A",
"q  c #47571A",
"w  c #58591A",
"e  c #4D530C",
"r  c #625F1A",
"t  c #47670B",
"y  c #56670F",
"u  c #466718",
"i  c #576A1A",
"p  c #5A7719",
"a  c #507211",
"s  c #66771D",
"d  c #6C7513",
"f  c #444423",
"g  c #4A4323",
"h  c #454C24",
"j  c #4B4D24",
"k  c #45442C",
"l  c #4D442C",
"z  c #4A4B2C",
"x  c #474A2B",
"c  c #54452A",
"v  c #534C2D",
"b  c #5A4929",
"n  c #4C5B24",
"m  c #495827",
"M  c #53542C",
"N  c #595729",
"B  c #444534",
"V  c #4C4332",
"C  c #454B35",
"Z  c #4D4C34",
"A  c #4C443B",
"S  c #4B4A3B",
"D  c #524634",
"F  c #534A33",
"G  c #5B4C34",
"H  c #53453A",
"J  c #544C3C",
"K  c #5B4C3C",
"L  c #5C4539",
"P  c #4B533A",
"I  c #4B5834",
"U  c #5B5235",
"Y  c #5C533B",
"T  c #5B5B3B",
"R  c #575738",
"E  c #614E2F",
"W  c #68562A",
"Q  c #634C37",
"!  c #62543C",
"~  c #635B3B",
"^  c #685736",
"/  c #72583F",
"(  c #735D2D",
")  c #4B6A27",
"_  c #556729",
"`  c #567625",
"'  c #4A6437",
"]  c #566636",
"[  c #597434",
"{  c #4D7030",
"}  c #676529",
"|  c #677725",
" . c #767828",
".. c #676538",
"X. c #76653A",
"o. c #667539",
"O. c #787C39",
"+. c #4A3E45",
"@. c #4E4943",
"#. c #544C42",
"$. c #5A4A43",
"%. c #574B49",
"&. c #4D5142",
"*. c #555343",
"=. c #5C5343",
"-. c #5B5C45",
";. c #5C554B",
":. c #5D5B4D",
">. c #54564A",
",. c #5A4E58",
"<. c #5A5855",
"1. c #624C47",
"2. c #645443",
"3. c #645B44",
"4. c #63544B",
"5. c #645B4B",
"6. c #6B5B4B",
"7. c #6A5844",
"8. c #765A45",
"9. c #615554",
"0. c #645B53",
"q. c #6C5C54",
"w. c #675B5A",
"e. c #6A5657",
"r. c #546244",
"t. c #5E6345",
"y. c #5C6C44",
"u. c #5A674B",
"i. c #5B7646",
"p. c #5B6654",
"a. c #6B644B",
"s. c #666748",
"d. c #736948",
"f. c #697549",
"g. c #76774B",
"h. c #646154",
"j. c #6B6555",
"k. c #656B56",
"l. c #6B6B55",
"z. c #6A6B5C",
"x. c #68665C",
"c. c #726A54",
"v. c #73665C",
"b. c #746B5B",
"n. c #786A56",
"m. c #6C7352",
"M. c #6C725B",
"N. c #677757",
"B. c #71735B",
"V. c #747B59",
"C. c #797656",
"Z. c #5D5C61",
"A. c #695D61",
"S. c #6C6363",
"D. c #6D6C64",
"F. c #686769",
"G. c #736C63",
"H. c #746B6B",
"J. c #766967",
"K. c #6E7364",
"L. c #6B7767",
"P. c #737365",
"I. c #7B7565",
"U. c #747A64",
"Y. c #7A7964",
"T. c #75736C",
"R. c #7C746C",
"E. c #7B7B6C",
"W. c #74796A",
"Q. c #736C73",
"!. c #766D77",
"~. c #6F7472",
"^. c #747474",
"/. c #7B7473",
"(. c #767973",
"). c #7C7B74",
"_. c #75757C",
"`. c #7B747C",
"'. c #7C7B7A",
"]. c #767A7D",
"[. c #6C6C78",
"{. c #846334",
"}. c #857959",
"|. c #817155",
" X c #82746B",
".X c #847D6D",
"XX c #877968",
"oX c #846D74",
"OX c #837B74",
"+X c #827C7B",
"@X c #867876",
"#X c #896F69",
"$X c #588118",
"%X c #5C830E",
"&X c #6C881A",
"*X c #758818",
"=X c #789516",
"-X c #728F0F",
";X c #5A832C",
":X c #6A8427",
">X c #79872A",
",X c #778738",
"<X c #708C2D",
"1X c #768448",
"2X c #6C8157",
"3X c #7A8857",
"4X c #6E894A",
"5X c #7E826C",
"6X c #778464",
"7X c #7D8274",
"8X c #77877F",
"9X c #7B9361",
"0X c #869118",
"qX c #889728",
"wX c #849833",
"eX c #8B8E2F",
"rX c #88A816",
"tX c #848455",
"yX c #8B934D",
"uX c #84826D",
"iX c #87866A",
"pX c #8C9366",
"aX c #848374",
"sX c #8A8373",
"dX c #84837B",
"fX c #8B837B",
"gX c #888A78",
"hX c #928E7C",
"jX c #91857A",
"kX c #96957B",
"lX c #9C9A69",
"zX c #97A672",
"xX c #7A7582",
"cX c #847D83",
"vX c #857B82",
"bX c #907D83",
"nX c #7E8985",
"mX c #8A8685",
"MX c #958A88",
"NX c #9B958C",
"BX c #989887",
"VX c #8C8A93",
"CX c #958D93",
"ZX c #9B9696",
"AX c #899490",
"SX c #A1998A",
"DX c #A39999",
"FX c #A7888E",
"GX c #9AA39A",
"HX c #A5A29B",
"JX c #A1A38D",
"KX c #AAAAA8",
/* pixels */
"H 1./  XZXW./.=.g j.dXdXP.uXY.`.G.> % w.DXNXR.N.eXO.E.I.q.^ W S.R.B.B.P.$.# ! L ,.J : @.@.",
"M b {...^.^./.K ; 2.T.^._.Q.G.T.J @.XXDXBXsXP.l.' u [ U.E.c.G N o.m.K.@.+ s.B.z o   # c D ",
"(.! X.d.E.H.%.b 6.%.#.#.9.0.J * - k 3XmXk.m.Y./.L.y.f.dX].D.0.N d | 6 h g.U.:.P . V 6. X`.",
"xXl.! 8.}.P.,.7.i.u.H # # & U 5.; < ;XN.l.I.).'.uXR.OXmXQ.H.R.j.y < &.uXkX+XQ.P n y O.gXcX",
"!.U.s.7.|.k.I b 5 m G 8.n.E.E.R.v.m 4 r.P.).).cX(.aXE.2Xm./.R.f.@ $.mXCXmXgXN.i _ p 1XdX8X",
"J.L.h.E oXp.2 w u M E d.BXAXmX.XL.P 0 h.P.P.D.J.F.S.k.u _ x.s.I O sXBXdX).5X[ a i g.Y.uXaX",
"b.E.z.c n.u.3 m M.T.6.~ Y.(.K.s.i.] N K Y *.*.Z B : U u 1 j j O C gX7XW.).dXD.C n uX.XR./.",
"F.5.%.U s | u 4 3XGX).2.L 4.J I 4 ,XeXb G $.=.< 2 e | ' m 0 = W # H S.H.H./.T.A 6 yXtXG.F.",
"C F ; 0 | &Xa { uXkXgXD.1.2.J *.t o. .X..X XsX9 t 0XeX4 ) ] Q {.~ ;.: H 2.2.0.k @ >X<X{ [ ",
"M G.H.k o M T U.mXaXfXOXv. X.Xl.I f @ jXHXZXkX%Xa wXf.7 { N.0.6.hX/.#.= c K w.*.R y p u a ",
"d.BXmXD.*   K oXcX/.OXfXE.P.T.I.*.f * SXBXmXiX&X0X:Xr.B.Y./.n.] P.'.=.Y ! XXDX+X.X} } ] m ",
"v.aXdX/.v.Z z 7.(.G./.aXk.N.~.D.=.0 : OXuX/.G.c.:Xy.-.B.T.H.s.5 T :.* x.H c.DXfXfXtXf.M.*.",
"K <.Q.J.q.C < q u.;.%.-.) { y.R J g O A :.0.J 9.&.,.;.P *.I ) ) ! D l  XH 3.OXT.(.U.k.P.*.",
"c g Z ;.> X 2 u e q X X u 2 7 7 w } M Z A B f L b 2.T j m 1 2 - b l @ K l U ;.x.F.<.<.<.> ",
"c.N b % H 3.0 3 r.D.S.t.] ' _ t *XeXpXhX.XK.k.X.XXDXkX1Xu 5 { & @ x ~ 5.=.@ O O - V 4.4.%.",
"`.#X8.^ kXfXe.: mXKXZXZXE.F.r.| *XtXHXCX.X7X_.^ }.ZXMXfXL.N.P.] o R BXCXw.% b.- a.SXBXsXG.",
"W.P.~ b.NXE.6.E .XNXVX(..XcXQ.m i jXhXdX+XW.D.! #XmX8X+XoX6Xi.R k &.BX`.;.~ cX,.9.HXMX'.).",
"z.^.;.j.hX/.w./ OX'.).7X.XR.T.&.q vXdXE.).T.S.U a.M.L.). XN.' q _ ` sXxXS s.iX=.> mXmX'.T.",
"T.J.K J 0.9.%.^ W Y R.aX/.`.D.I j F.'.U.R.J.@.Y 7.~ =.4.2.-.7 i &X&XV.L.l 3.y.>.% S.'.E.P.",
"9.A N =.%.5.=.d.( G S.b.l.D.p.I - A :.:.S.q.V sXc.G D $.L P 2 i qXg.R.z.l ~ 1 o.i x -.s.c.",
"H 6.iXBX+XsX.X.X}.d.+.S M 0 Z B Q c.-.J %.H D R.T.J s.dX+Xi.3 i >X..A.,.g } a =Xs h k g F ",
"G MXDXZXfXsXvX^.3XwXN w N U %.J E b.j.~ b.J.3.*.<.= n.NXVXf.q T O.i U F N  .0X*X[ L.F.5.K ",
"^ hXBX).E.sXdX^.1XwX .qXpXMXvXv.K *.0.n.BXmXc.-.H b |.mX+Xs.T #XfXW.d...V.eX0X| u 2X'./.4.",
"Q }.zX5X/.sXE.M.g. .U lXHXNXgXH.x.B : R.GXL.f.5Xs.^ n.dX7Xu.<.FXDXAXsXQ.nXtX~ q [ [ K.!.;.",
"E } yXg.D.H.j.t.-.g . jXDXfX(.].E.,.% a.3X) N.'.D.! c.c.S.Z.$. XJ.!.J.D.F.F.> r 3X7X'.D.*.",
"v N N U *.&.S J : J F dXVX(.E.OXY.%.f ] <Xu u.P.S.G -.G H #.^ N I >.] ` ) i._ y o.l.S.#.l ",
"j.I.=.= . x N e Y O.} I.8XL.OXOXQ.Z 0 q =X` P M : l t.U G 2.^ ^ 2.=._ u 4 $X*Xw w D >   $ ",
"j.BXP.h.K b O.-X,XrXd v.2X[ E._.H.;.;.N -X*X] Y V ! l.D q.@X1.I.DXfXJ.7.3.O.qX .~ =.@.% $ ",
"a.SXaXR.J.L g.,X:X=Xw w.;Xt m._.L.;.H ! O.yXpX+XY.K * : OX+X: CXJXsXv.v j.mXBXpXmX+XR.P.=.",
"5.+X'.T.5.a.BXuXs.o.z P ` t ~ d.z.Z 0 ^ jXNXgX_.7X Xq.2.a.C % BXMX+XF.z 3XGXZXNXmX'.T.T.#.",
";.x.W.T.z ~ SXmX+XT.;.z n m f 0 0 f z T mXmXuXxXmXOXH.7.~ . 3.BXaX`.v.$.R.BXdX'.dX'.).G.@.",
"& M ] u.l ! J.F.p.a.<.J W |.H.l.~ T T q 6X].Y..X'.+X^.2./ = #XmX(.^.O.s C.+X'.E.Y.R.T.h.Z ",
"D._ 1 1 6 H v 6 7 6 % @ J bX@XE.E.[.T >XyXV.M.D.D. X`.-.:.2.D <.%...=X<X` i p.J.R.5Xt.< P ",
"u.| y ' x.* @ _ p _ 4.v j =.Q Y #.H } qXqXw N J z v H @ j ] f l A ..| t u 0 . =.F.f.n 6 r.",
"y.yXqXt.[.f w qXqXg.H.N i M U R c.d.C.}...g . . k 0 g & h u r.C.gXsXB.u ] :.g & B N u p &X",
"E.C. .R Z.e d wXo.p.p.u $X1 n [ iXBXBX+XG.S.O k (.l.T T ] t f.6XBXmXmXo.u.w.X.6.=.z i =X&X",
"J.L U 3.=.w *Xo.G.p.r.u p 3 < < 0.`.mXsXsXOXO *.ZX'.] u _ &X:X{ 7XxXdXU.(.0.~ OXF.6 q q Z ",
"$.b q.w.c } yXN.@XM.h.h q 6 h B A +.w.=.0.;.+ & Y.z.] u 2 >Xp ' /._.U.P.mXk.z T j Z h.> * ",
";.b 7.e.G ^ n.I.J.U.J.= 3.k.m.W...N U J Y J H & g *.K.f.6 M h >.v.z.m.G.!.u.m _ y C.VX/.n.",
"D.~ ( 8.! ~ 4.q.F.F.w.L SXBXm.V.>X*X..).gXR./.b.- >.[.j.B 6 x D L Z P 4.9.8 1 >X1XV.M.E.mX",
"J.Y d.MXG.U v c #.D c 7.DXVXL.) :Xs } 9X4XaXCXaXF J K D g v a.D F 5.2.~ U z 0 qX` ) y.K.T.",
"9.l n.MXR.V 3.n.H =.6.! G.).V.2 I z g _ t y.cXP.#.;.q.l ..z s.=.C.jXMXMXfXS.6 N m ] l.I.G.",
"H c }.OXH.A I.MX5.j.n.3.2.j.f.q m G K _ ` m.+XV.;. Xv.=.V.n j ..yXhXCXdX5Xk.C 6 @.%.,.%.@.",
"J ~ n.v.9.A 5.w.V K =.=.! U M n O 6.! w =X0Xg.`.U Y D b.V.[ p | s s.D.M.m.] m 2 @ v F v U ",
"n.7.D * O   % > % 3.j.n.#Xn.s.m.U W E v y -X| *.l c ! E.i.u p &Xt 6 S C P 6 1 u U C.iXXXXX"
};
