/* XPM */
static char *c4a0bc2c8c4345c5af61cf94c4bea767Yfre68BfaWY1KUFO[] = {
/* columns rows colors chars-per-pixel */
"45 45 231 2 ",
"   c None",
".  c #8E8F7D",
"X  c #8C8F7F",
"o  c #8E8F7E",
"O  c #8E8E7F",
"+  c #8E8F7F",
"@  c #8F8F7F",
"#  c #8D8F80",
"$  c #8E8E80",
"%  c #8E8F80",
"&  c #8E8E81",
"*  c #8E8F81",
"=  c #8F8F82",
"-  c #8E9082",
";  c #939480",
":  c #939481",
">  c #939482",
",  c #949480",
"<  c #949481",
"1  c #949482",
"2  c #999987",
"3  c #9A9987",
"4  c #9B9A8A",
"5  c #9B9B8B",
"6  c #9C9B88",
"7  c #9C998A",
"8  c #9D9C8B",
"9  c #9E9D8B",
"0  c #9E9E8A",
"q  c #9D9D8C",
"w  c #9D9D8D",
"e  c #9E9E8D",
"r  c #A1A18E",
"t  c #A2A18E",
"y  c #A2A08F",
"u  c #A2A18F",
"i  c #A6A38F",
"p  c #A5A48F",
"a  c #A7A695",
"s  c #A8A595",
"d  c #ABAA96",
"f  c #ACA995",
"g  c #AFAD9B",
"h  c #B1AD9A",
"j  c #B2AF9C",
"k  c #B3AF9C",
"l  c #BBB8A0",
"z  c #BBB8A1",
"x  c #BCB8A1",
"c  c #BCB8A2",
"v  c #BCB8A3",
"b  c #BDB9A4",
"n  c #BDBAA5",
"m  c #BEBAA5",
"M  c #C8C4AF",
"N  c #C9C4AF",
"B  c #CDC6B0",
"V  c #CDC7B0",
"C  c #CDC7B2",
"Z  c #CDC8B1",
"A  c #D4CCB5",
"S  c #D4CCB6",
"D  c #D1CCB8",
"F  c #D0CDB8",
"G  c #D3CFB9",
"H  c #D5CFBA",
"J  c #D6CFBA",
"K  c #D7CFBC",
"L  c #D7D1B7",
"P  c #D5D0B8",
"I  c #D5D0B9",
"U  c #D6D0B8",
"Y  c #D7D1B8",
"T  c #D6D0B9",
"R  c #D7D1B9",
"E  c #D7D2B8",
"W  c #D5D0BA",
"Q  c #D5D1BA",
"!  c #D6D0BA",
"~  c #D6D1BA",
"^  c #D7D1BA",
"/  c #D6D2BB",
"(  c #D3D2BE",
")  c #D4D1BD",
"_  c #D6D1BC",
"`  c #D7D1BC",
"'  c #D7D2BC",
"]  c #D7D2BD",
"[  c #D5D1BE",
"{  c #D6D1BE",
"}  c #D5D2BE",
"|  c #D8D0B9",
" . c #D8D1B9",
".. c #D8D0BA",
"X. c #D8D0BB",
"o. c #D8D3BA",
"O. c #D9D1BD",
"+. c #D9D2BC",
"@. c #D8D3BC",
"#. c #D9D3BC",
"$. c #D9D3BD",
"%. c #D8D4BC",
"&. c #D9D4BC",
"*. c #DAD5BD",
"=. c #DAD4BE",
"-. c #DAD4C1",
";. c #DBD7C0",
":. c #DCD6C1",
">. c #DCD7C2",
",. c #DCD7C4",
"<. c #DED9C3",
"1. c #DDD9C5",
"2. c #DED9C4",
"3. c #DFDAC5",
"4. c #DEDAC6",
"5. c #DEDBC6",
"6. c #DEDAC7",
"7. c #DFDAC7",
"8. c #DEDBC8",
"9. c #E0DBC7",
"0. c #E0DCC6",
"q. c #E1DCC9",
"w. c #E2DEC9",
"e. c #E1DCCA",
"r. c #E1DECA",
"t. c #E1DFCB",
"y. c #E2DECA",
"u. c #E2DFCA",
"i. c #E2DECB",
"p. c #E2DFCB",
"a. c #E1DFCC",
"s. c #E2DECC",
"d. c #E3DECC",
"f. c #E3DFCC",
"g. c #E4DECD",
"h. c #E4E0CD",
"j. c #E4E0CF",
"k. c #E4E2D0",
"l. c #E6E2D1",
"z. c #E6E3D1",
"x. c #E6E6D5",
"c. c #E7E6D5",
"v. c #E7E6D6",
"b. c #E7E7D6",
"n. c #E8E5D2",
"m. c #E8E7D3",
"M. c #E8E6D4",
"N. c #E8E4D6",
"B. c #E8E5D6",
"V. c #E8E6D6",
"C. c #E9E6D8",
"Z. c #E8E7D8",
"A. c #EAE7D8",
"S. c #E8E8D8",
"D. c #E8E9D9",
"F. c #E9E9DA",
"G. c #EAE9DA",
"H. c #EAEADA",
"J. c #EAEADB",
"K. c #EBEADB",
"L. c #EAEBDB",
"P. c #EBEBDB",
"I. c #EAEADC",
"U. c #EAEBDC",
"Y. c #EAEBDD",
"T. c #EBEBDD",
"R. c #ECEADC",
"E. c #ECEADD",
"W. c #ECEBDD",
"Q. c #ECEBDE",
"!. c #EBECDD",
"~. c #EDECDD",
"^. c #EDECDE",
"/. c #ECEDDE",
"(. c #EDEDDF",
"). c #EEEDE0",
"_. c #EFEDE1",
"`. c #EDEEE0",
"'. c #EEEEE0",
"]. c #EFEEE0",
"[. c #EFEEE1",
"{. c #EEEFE1",
"}. c #EFEEE2",
"|. c #EEEFE3",
" X c #F0EDE0",
".X c #F0EDE1",
"XX c #F0EEE0",
"oX c #F0EEE1",
"OX c #F0EDE2",
"+X c #F1EDE2",
"@X c #F0EEE2",
"#X c #EFF0E3",
"$X c #F0F0E3",
"%X c #F2F0E3",
"&X c #F1F0E4",
"*X c #F2F0E4",
"=X c #F2F1E4",
"-X c #F3F1E7",
";X c #F2F2E6",
":X c #F3F3E8",
">X c #F3F3E9",
",X c #F5F3E9",
"<X c #F3F4E8",
"1X c #F3F4E9",
"2X c #F4F4E9",
"3X c #F4F4EA",
"4X c #F5F4EB",
"5X c #F5F5EB",
"6X c #F7F6EB",
"7X c #F6F6EC",
"8X c #F7F6EC",
"9X c #F8F7ED",
"0X c #F8F7EE",
"qX c #F8F8EF",
"wX c #F9F8F0",
"eX c #F9F9F0",
"rX c #FAF8F1",
"tX c #FBFAF1",
"yX c #FAFAF2",
"uX c #FBFAF2",
"iX c #FAFAF3",
"pX c #FBFBF3",
"aX c #FCFBF3",
"sX c #FBFCF3",
"dX c #FCFCF2",
"fX c #FEFEF5",
"gX c #FDFCF6",
"hX c #FEFDF7",
"jX c #FEFEF6",
"kX c #FFFFF9",
"lX c #FFFEFA",
/* pixels */
"                                                                                          ",
"                                                                                          ",
"                                                                                          ",
"                                                                                          ",
"                                                                                          ",
"                                                                                          ",
"                                                      _   Q   Q                           ",
"                                                    Q e.OXf.}.1.Q                         ",
"                                                    e.eXkXgXkX8X1.                        ",
"                                                    z.qX2XeX2X0Xh.                        ",
"                                                    1.;X}.2X/.Z.;.                        ",
"                                                    B.eX1XeX#XD.8.                        ",
"                                                    1.;X/./.!.x.*.V 6 s e &               ",
"                                                    Z.eX}.D.D.U.z.$.G J M 9 &             ",
"                                                  J ,.;XQ.D.D.U.D.e.n.e...n               ",
"                                                Q $.OXsX}.D.D.U.x.*.0.;.S p &             ",
"                                              Q $.OXgX1XD.x.D.x.D.e.n.e...n               ",
"                                            Q $.}.gX,XD.e.$._ _ _ $._ _ V y -             ",
"                                          Q $.OXgX2XQ.e.Q x 2 j 6 h 9 f y o               ",
"                                        Q $.OXgX2XQ.f...x ; o                             ",
"                                      Q $.}.gX>XU.f...x ; o                               ",
"                                    Q $.}.gX1XU.e...x ; o                                 ",
"                                  Q $.OXgX2XU.e.Q x 1 o                                   ",
"                                Q $.OXgX2XU.e.Q l 1 o                                     ",
"                              Q $.}.gX>XU.f.Q l ; o                                       ",
"                            Q $.OXgX1XU.e.Q x ; o                                         ",
"              Q e.z.1.B.<.Z.>.OXgX1XU.f.Q x 1 o                                           ",
"            Q e.eXqX;XeX;XeX$XdX2XU.e.Q l 1 o                                             ",
"              OXkX2XOX,X/.}.Q.}.U.e.L l ; o                                               ",
"            K g.gXeX8XaX}.D.D.D.x.$.x 1 o                                                 ",
"              OXkX2X}.$XU.D.D.D.U.( 2 o                                                   ",
"            _ 1.2X0XD.D.x.D.D.U.x._ j                                                     ",
"              Q 1.h.*.1.*.z.D.B.D._ 4                                                     ",
"                        Z ..e.*.e._ g                                                     ",
"                        4 G B.9.n._ 9                                                     ",
"                        a G e.>.e.Q d                                                     ",
"                        e M Q S ..V y                                                     ",
"                        & e n i n y &                                                     ",
"                          &   o   &                                                       ",
"                                                                                          ",
"                                                                                          ",
"                                                                                          ",
"                                                                                          ",
"                                                                                          ",
"                                                                                          "
};
