/* XPM */
static char *doors_removebg_preview__2___1_1706967924[] = {
/* columns rows colors chars-per-pixel */
"45 45 210 2 ",
"   c None",
".  c #141516",
"X  c #111718",
"o  c #111B1C",
"O  c #1B1D1C",
"+  c #0D0E0E",
"@  c #1D201E",
"#  c #111F20",
"$  c #0D2A2B",
"%  c #0E2122",
"&  c #192323",
"*  c #152729",
"=  c #153A39",
"-  c #1B3939",
";  c #193333",
":  c #212526",
">  c #232729",
",  c #252B2D",
"<  c #2B2E2E",
"1  c #292E31",
"2  c #272D30",
"3  c #27383A",
"4  c #342E2A",
"5  c #5A1F02",
"6  c #5E2306",
"7  c #5B240A",
"8  c #432B1E",
"9  c #562C14",
"0  c #582B14",
"q  c #612406",
"w  c #682707",
"e  c #7A2E06",
"r  c #762E08",
"t  c #7D320B",
"y  c #70300F",
"u  c #763413",
"i  c #6A3014",
"p  c #573622",
"a  c #663C22",
"s  c #5C493E",
"d  c #734528",
"f  c #714B2F",
"g  c #273D40",
"h  c #1D4444",
"j  c #1E4D50",
"k  c #214746",
"l  c #354847",
"z  c #255253",
"x  c #3E5B5F",
"c  c #32615E",
"v  c #2E7D7E",
"b  c #2F7173",
"n  c #327979",
"m  c #2E6164",
"M  c #6E5B4E",
"N  c #756354",
"B  c #68615A",
"V  c #48676C",
"C  c #57757B",
"Z  c #5A7D6C",
"A  c #6E7675",
"S  c #717978",
"D  c #726B64",
"F  c #82350D",
"G  c #853A14",
"H  c #8B3B13",
"J  c #863C18",
"K  c #923D13",
"L  c #8B411D",
"P  c #9A4215",
"I  c #9E461A",
"U  c #974319",
"Y  c #A0461A",
"T  c #A44A1C",
"R  c #AA4D1E",
"E  c #AE511F",
"W  c #B1511F",
"Q  c #8A4726",
"!  c #934622",
"~  c #954924",
"^  c #9B4B25",
"/  c #954C2B",
"(  c #9B4D29",
")  c #9B4720",
"_  c #9A522A",
"`  c #9C5937",
"'  c #A24D25",
"]  c #A64E26",
"[  c #AB5025",
"{  c #A3522D",
"}  c #AB542C",
"|  c #AA5728",
" . c #B15221",
".. c #B2572E",
"X. c #BC5B2B",
"o. c #B35929",
"O. c #A45633",
"+. c #AB5935",
"@. c #A95A34",
"#. c #B45C34",
"$. c #BB5E35",
"%. c #B45F3B",
"&. c #B6613C",
"*. c #BC6337",
"=. c #AB6A37",
"-. c #C45E2B",
";. c #C7632F",
":. c #C5643A",
">. c #CD6A3A",
",. c #C96433",
"<. c #D66D38",
"1. c #DB723C",
"2. c #CB773C",
"3. c #E6753C",
"4. c #855945",
"5. c #906043",
"6. c #A76649",
"7. c #B76847",
"8. c #B87641",
"9. c #AC6D52",
"0. c #BC785A",
"q. c #AB7047",
"w. c #B37A61",
"e. c #AF7A62",
"r. c #C46B45",
"t. c #CB6D46",
"y. c #C86E48",
"u. c #CA764A",
"i. c #D47244",
"p. c #D77648",
"a. c #C77A57",
"s. c #E67A46",
"d. c #EC7C46",
"f. c #E37B49",
"g. c #EC7D48",
"h. c #E07746",
"j. c #F17F46",
"k. c #758878",
"l. c #98865F",
"z. c #B48E5F",
"x. c #B88566",
"c. c #D8955E",
"v. c #CC864C",
"b. c #FE8446",
"n. c #FF8548",
"m. c #FC8D4D",
"M. c #E69C5F",
"N. c #FC9855",
"B. c #FCA25D",
"V. c #EDA05B",
"C. c #C79461",
"Z. c #DC9B62",
"A. c #C28264",
"S. c #E59D61",
"D. c #FEAE65",
"F. c #F4A762",
"G. c #FFB066",
"H. c #5C7C82",
"J. c #617E85",
"K. c #398988",
"L. c #3F9596",
"P. c #3EADAD",
"I. c #5E838A",
"U. c #548387",
"Y. c #5D8C92",
"T. c #5D969C",
"R. c #469093",
"E. c #63858D",
"W. c #648288",
"Q. c #648B93",
"!. c #688E96",
"~. c #6D949C",
"^. c #64949B",
"/. c #5D9DA2",
"(. c #669BA2",
"). c #6A9BA3",
"_. c #6D97A0",
"`. c #48A8AA",
"'. c #5AA6AA",
"]. c #5BADB1",
"[. c #58B5B8",
"{. c #4BBBBA",
"}. c #66A3AB",
"|. c #69A3AA",
" X c #66A6AC",
".X c #65ACB2",
"XX c #69A9B0",
"oX c #65B1B5",
"OX c #63B4BA",
"+X c #62BABE",
"@X c #5FBFC2",
"#X c #62BDC2",
"$X c #4FCDCE",
"%X c #4CC5C6",
"&X c #5DC5C9",
"*X c #51CCCD",
"=X c #5DCACD",
"-X c #59C3C7",
";X c #5DCED1",
":X c #54CED0",
">X c #4CD3D3",
",X c #54D4D5",
"<X c #5CD1D4",
"1X c #51DBDD",
"2X c #56D6D8",
"3X c #4ECFD0",
"4X c #61C2C6",
"5X c #60C7CB",
"6X c #50DFE0",
"7X c #4FE0E1",
/* pixels */
"                                % * b v v v v v l u W =._ L R Q                           ",
"                          k j L.`.`.,X2X[.+X Xk.q.d.B.M.| T v.| t L                       ",
"                    - v K.$X-X X|.|.^.-X].D ` <.b.B.F.b.( T j...P <./                     ",
"                b {.`.].OXOX#X#XI.V l 3 3 9 ;.n.B.v.X.v.( T j...P s.@.d c                 ",
"            k K.[.4X=XXXQ.E.x m g & > < 8 ! 3.n.D.8.E g.' T g...U 1.@.a k.v k             ",
"          n `.XX_._.}.R.g > : : , 2 1 1 0 X.n.m.F.=.E g.] T g...U b.#.r d }.'.b           ",
"        j *X;XXX_.H.l > 2 2 1 1 1 1 1 8 ( 3.n.D.Z.!  .g.] T g.O.P 3.X.P | B 5X%Xh         ",
"      - *XXXXX+XV , > 2 1 2 1 1 1 2 1 9 ;.n.n.B.S.!  .g.] T h.{ P d.$.Y <.d _.oX{.%       ",
"    - `..X).~.C O > 1 1 1 1 1 1 < 1 4 i <.n.m.D.Z.~ [ j.] T s.{ P j.$.Y 1.Q S ).].P.*     ",
"  - K.&X&X#XI.& & 1 1 1 1 1 1 1 < < 9 X.b.b.D.c.y.' [ g.' T g...K j.$.Y s.+.f OX4X-Xv     ",
"  = 1X XXX(.3 > 1 1 1 1 1 1 1 1 1 1 9 -.b.b.G.Z.r.' [ s.^ Y g...P g.$.I j.:.a U.}.XX,X;   ",
"  j ,X).~.C o > 1 1 1 1 1 1 1 1 1 1 9 ;.n.j.V.v.&.)  .s.( ' g.} K g.$.P j.:.q @ E.|.,Xk   ",
"= %X&X#X'.* > 2 1 1 1 1 1 1 1 1 1 < 9 ;.3.X.o.| [ H P $.J Y f.{ P s.+.T d.%.q & '.+X&X@X$ ",
"= 6X4X#X'.o > 1 1 1 1 1 1 1 1 1 1 < 9 ;.E X.s.i.p.r.-.X.[ P ..K K <._ I g.%.q & ].#X%X>X$ ",
"= ,X).~.J.X > 1 1 1 1 1 1 1 1 1 2 < 9 ;.,.X.| ^ 9.0.7.a.a.i.i.:.[  .T K -.^ 6 O E.~.(.3X$ ",
"= 1XOX.X^.X > 1 1 1 1 1 1 1 1 1 2 < 7 -.n.3.| L G u G / 6.%.9.x.t.u.a.:.>.-.H p )..X[.>X$ ",
"= 7X;X&X].# > 1 1 1 1 1 1 1 1 1 2 < 9 ;.n.b.F.c.@.H K P e t J ( ! O.e.7.7.A.*.d oX5X;X,X$ ",
"= ,X)._.H.X > 1 1 1 1 1 1 1 < 1 2 < 9 ;.n.b.G.Z.t.^ W p.! P X.t e K F G Q 6./ a E.~.}.*X$ ",
"= 1X.X).Y.o > 1 < 1 2 1 1 1 1 1 , < 9 ;.n.b.G.V.t.! W f.( T f._ P i.K H  .F 5 @ ^.|.XX3X$ ",
"= 6X;X;X].# > 1 2 1 1 1 1 1 1 1 2 < 7 ;.b.b.G.c.6.Q  .f.( ' f.} K g.+.Y s.+.6 & [.;X2X>X$ ",
"= ,X(.).I.X > 1 1 1 1 1 1 1 1 1 2 < 9 ;.b.b.G.z.D B ` f.^ T j...Y s.+.Y g.%.6 O E.). X3X$ ",
"= ,X).).I.X > 1 1 1 1 1 1 1 1 1 2 < 9 ;.b.b.G.l.A A 5.f.( T j...K s.+.Y j.:.q O Q.).XX3X$ ",
"= 7X2X<X[.# > 1 1 1 1 1 1 1 1 1 1 < 9 ;.b.b.D.C.N s } g.] T g...Y d.$.P j.:.q * @X;X2X>X$ ",
"= 2X.X).Q.. > 1 1 1 1 1 1 1 1 1 1 < 9 ;.b.b.D.M.4.p E g.} T g.} K g.$.T j.:.q O Y.(..X3X$ ",
"= 2X)._.H.X > 1 1 1 1 1 1 1 1 1 < < 0 -.n.n.D.S.4.p W j.] ] s.{ P j.$.Y g.%.q O Q.~.}.$X$ ",
"= 7X;X=X].# > 1 < 1 1 1 1 1 1 1 1 < 0 -.n.n.G.Z.M p W g.[ T g.} K s.+.Y d.:.q & [.=X;X>X$ ",
"= 1X.XXXT.o > 1 1 1 1 1 1 1 1 1 1 < 0 -.n.b.G.C.M M ] j.] T g...Y s.+.I g.:.q O T.XXOX>X$ ",
"= ,X)._.H.X > 1 1 1 1 1 1 1 1 1 1 < 0 -.b.b.D.l.D S 4.d.' T g...K g.#.Y j.:.q O E.~.|.*X$ ",
"= 1X&X#X'.o > 1 1 1 1 1 1 1 1 1 1 < 9 ;.b.b.G.x.N B ` s.( T s.} P j.$.I j.*.q & ].#X=X>X$ ",
"= 1X#XOX/.o > 1 1 1 1 1 1 1 1 1 1 < 9 ;.n.b.D.Z.7.Q  .s.' ' s.O.P s.#.I g.&.q @ '.OX#X>X$ ",
"= ,X).~.H.X > 1 1 1 1 1 1 1 < 1 < < 9 -.n.b.D.S.t.'  .g.[ T f.O.P s.O.U 1.' w 8 W.~.}.*X$ ",
"= 1X#XOX/.o > 1 1 1 1 1 1 1 2 < 2 < 9 -.b.b.D.S.t.~  .g.] T i.! H ;.' T X.>.X.H M |.+X>X$ ",
"= 1X&X#X'.o > 1 1 1 1 1 1 1 1 1 1 < 9 -.n.b.G.V.r.L R <.K K X.$.X.:.u.i.u.x.7.+.f .X;X>X$ ",
"= ,X)._.I.X > 1 1 1 1 1 1 1 1 1 1 < 9 ;.b.3.v.=.} [ [ -.>.i.u.a.y.a.e.O.O.` u a S ~.(.$X$ ",
"= 2X.X}.Y.o > 1 1 2 1 1 1 1 1 1 1 < 9 -.;.X.-.;.r.u.i.a.w.&.9.6.K J J e F e 6 O (. XoX>X$ ",
"= 6X;X=X].o > 1 1 1 1 1 1 1 1 1 1 < 0 -.R X.p.r.0.9.( ` Q e e r F ' J K 1.#.6 & [.&X;X>X$ ",
"= ,X).).W.X > 1 1 1 1 1 1 1 1 1 < < 0 -.3.$.I J J F F F e K ,.) P g.$.Y g.:.q O E._.|.:X$ ",
"= *X^.~.H.X : 2 , , < < , , , , , < 9 -.n.b.2.| ! F E h.' T g...K j.$.Y g.%.6 O I.!.(.%X$ ",
"  z 3 3 1 + X . . . . . . . . o X . 7 -.n.b.D.S.i.' E g.[ T g.O.P j.$.Y s.O.i . 3 3 g z   ",
"                                    i -.n.b.D.Z.y.'  .g.[ T f.{ Y h.O.H ..                ",
"                                    y -.n.b.D.Z.t.' [ g.] T h.O.H $.J                     ",
"                                    y -.n.b.D.Z.r.^ W s.( I >./                           ",
"                                    y -.n.b.D.Z.7.!  .i.~ u                               ",
"                                    y -.n.n.D.Z.7.~ H _                                   ",
"                                      o.;.;.u.8.~                                         "
};
