/* XPM */
static char *_21ef5322a974a86e98abe2b95d6b6f0umd7O7XR0NgU8iRz[] = {
/* columns rows colors chars-per-pixel */
"45 45 98 2 ",
"   c #000000",
".  c #0C0A02",
"X  c #070809",
"o  c #0C0C0C",
"O  c #110D02",
"+  c #1B1502",
"@  c #0F0F10",
"#  c #0F1011",
"$  c #121212",
"%  c #1B1B1B",
"&  c #221B04",
"*  c #241E0B",
"=  c #2B2102",
"-  c #3A2D04",
";  c gray14",
":  c #2B2B2B",
">  c #333333",
",  c #3C3C3C",
"<  c #433304",
"1  c #483704",
"2  c #4C3A04",
"3  c #523F04",
"4  c #503E08",
"5  c #534104",
"6  c #5A4505",
"7  c #584508",
"8  c #644E05",
"9  c #774207",
"0  c #7E4707",
"q  c #755904",
"w  c #785B04",
"e  c #53423D",
"r  c #3F4143",
"t  c #444444",
"y  c #4C4D4D",
"u  c #5C4D4B",
"i  c #545454",
"p  c gray36",
"a  c #674446",
"s  c #674D4F",
"d  c #636363",
"f  c #6A6A6B",
"g  c #7F7967",
"h  c #737373",
"j  c #7B7B7B",
"k  c #9E0D18",
"l  c #98141E",
"z  c #A3010D",
"x  c #A9000D",
"c  c #BB0210",
"v  c #CF0012",
"b  c #D20011",
"n  c #995C08",
"m  c #916F03",
"M  c #9B7605",
"N  c #A27704",
"B  c #AC7805",
"V  c #AC8408",
"C  c #B18705",
"Z  c #B98D05",
"A  c #CB9B05",
"S  c #D19F05",
"D  c #D8A402",
"F  c #DFA904",
"G  c #E3AC03",
"H  c #ECB503",
"J  c #F2B702",
"K  c #F4B902",
"L  c #FBBE00",
"P  c #FEC000",
"I  c #88816F",
"U  c #828282",
"Y  c #8B8B8B",
"T  c #959595",
"R  c #9B9B9B",
"E  c #A39D8A",
"W  c #A6A08D",
"Q  c #9E9EA0",
"!  c #A3A3A3",
"~  c #ABABAB",
"^  c #B2B2B2",
"/  c #BBB3B3",
"(  c #BCBCBC",
")  c #BEBEC0",
"_  c #C3C2C2",
"`  c #CCCCCC",
"'  c #D3D3D3",
"]  c #DBDBDB",
"[  c #E2E2E2",
"{  c #E4E4E4",
"}  c #E9E9E9",
"|  c #EFEFEF",
" . c #F1F1F1",
".. c #F2F3F4",
"X. c gray96",
"o. c #F6F7F8",
"O. c #FBFBFB",
"+. c white",
/* pixels */
"                                                                                          ",
"                                                                                          ",
"          $ X                                                               X $           ",
"        p ` ! %                                                           $ T ' f         ",
"      o ` +.+.f                                                           p +.+.' $       ",
"    : j } +.+.j                                                           f +.+.| j >     ",
"  ; ' +.+.+.+.h                                                           d +.+.+.+.] >   ",
"  , X.+.+.+.+.[ i                       O & = & O                       t ] +.+.+.+.+.y   ",
"  o Y ] ` ( O.+.} d               . 2 M A F G G A M 3 O               i { +.+._ ` ] T $   ",
"      % $ o Y O.+. .h X         - C J P L L L L L P K Z <           d | +.+.T $ o % X     ",
"            X j X.+.X.U o     6 G P L L L L L L L L L P G 8     X h  .+.O.Y o             ",
"                f | +.O.Y # 5 H P L L L L L L L L L L L P H 8 o U X.+.X.j X               ",
"                  p } +.X.u 9 n n n n n n n n n n n n n n n 0 e | +.| f                   ",
"                    y [ _ l b v v v v v v v v v v v v v v v b k / } p                     ",
"                      r s z c c c c c c c c c c c c c c c c c x a y                       ",
"                + 1 q m N B B B B B B B B B B B B B B B B B B B N m w 2 +                 ",
"              4 V A D D D D D D D D D D D D D D D D D D D D D D D D D S V 7 .             ",
"              + + + + & g E E E W E E W E E E E E W E E W E E E I * + + + +               ",
"                      X ) +.+.o.! d f ^ +.+.+.+.+.( f d Q ..+.+.` @                       ",
"                      X ^ +.O.h X     o Y +.+.+.R o       d X.+._ o                       ",
"                        Y +._ o         % ] +.{ :         o ^ +.R                         ",
"                        y +.R           X ( +.` o           Y +.p                         ",
"                        $ ` ^ X         $ ` +.] %           ! ] %                         ",
"                          d } y         d O.+.+.h         , { h                           ",
"                          o ! ] f : : h } ^ i ! | U > : d ] ^ $                           ",
"                            % ^ +.} | +. .,   : } +.| } +.( ;                             ",
"                              > ~  .+.+.O.h $ d X.+.+.X.^ ,                               ",
"                            > _ Y j ( } +.X.'  .+.| _ j Y ` t                             ",
"                          t ' +.R ' ~ f T ! ! ! T f ~ ` R +.] y                           ",
"                        y [ +.O.h ! ( T } ' j ' } T ( ! h X.+.} p                         ",
"                      p } +.+.R d ` Y p R ! d ! R p Y ` d Y O.+.| f                       ",
"                    f | +.O.Y o , ' ` ! } ' j ` } ! ` ] t X U X.+.X.j X                   ",
"                X j X.+.X.U o   , R j j ` ' U ` ` U j R t   X h  .+.O.Y o                 ",
"              o Y O.+. .h X     ,  .| ` ^ ! T ! ^ ` }  .,       d | +.+.R $               ",
"            $ R +.+.} d         o ( +.+.+.+.+.+.+.+.+.( $         i { +.+.! %             ",
"    o > ; ; ~ +.+.[ i             > ` +.+.+.+.+.+.+.` >             t ] +.+.^ : ; > $     ",
"  $ ! | [ ] +.+.] t                 % f ~ ` ' ` ~ h %                 , ' +.+.] [ | ^ %   ",
"  t O.+.+.+.+.` ,                       X o $ $ X                       : _ +.+.+.+.+.i   ",
"  % _ O.+.+.+.f                                                           i O.+.+.O.` ;   ",
"    % p { +.+.j                                                           f +.+.| d %     ",
"      o _ +.+.p                                                           y O.+.' $       ",
"        t ^ U o                                                           o h ^ i         ",
"          X                                                                   X           ",
"                                                                                          ",
"                                                                                          "
};
