/* XPM */
static char *_58ebad767ee417db068441016ce910ecoVuIqUprR8BAlwX[] = {
/* columns rows colors chars-per-pixel */
"45 45 216 2 ",
"   c None",
".  c #040300",
"X  c #0A0701",
"o  c #060800",
"O  c #0C0B02",
"+  c #0F0D0C",
"@  c #120E02",
"#  c #120D0B",
"$  c #0E1102",
"%  c #131203",
"&  c #1A1604",
"*  c #171902",
"=  c #1B1906",
"-  c #14120A",
";  c #1A160A",
":  c #1C1B0C",
">  c #110C12",
",  c #191812",
"<  c #340303",
"1  c #370D05",
"2  c #261105",
"3  c #211C0D",
"4  c #2F140A",
"5  c #38170A",
"6  c #221E12",
"7  c #211815",
"8  c #341312",
"9  c #290D05",
"0  c #1C2207",
"q  c #23220D",
"w  c #29260F",
"e  c #242413",
"r  c #292513",
"t  c #242B13",
"y  c #2B2B14",
"u  c #25231C",
"i  c #2A251B",
"p  c #2C2B1A",
"a  c #322A17",
"s  c #34251C",
"d  c #332D1B",
"f  c #3D261A",
"g  c #293016",
"h  c #36341C",
"j  c #39331A",
"k  c #3A3818",
"l  c #3B280F",
"z  c #292720",
"x  c #2A2922",
"c  c #332F22",
"v  c #343424",
"b  c #383522",
"n  c #3C3B24",
"m  c #3A342A",
"M  c #37382A",
"N  c #3C3B2D",
"B  c #353725",
"V  c #3D3A34",
"C  c #451301",
"Z  c #48130C",
"A  c #4B1705",
"S  c #561E09",
"D  c #5C1D17",
"F  c #4B0E07",
"G  c #6E0F0D",
"H  c #71140C",
"J  c #5A240C",
"K  c #46261A",
"L  c #483D1A",
"P  c #513915",
"I  c #453D23",
"U  c #433D2B",
"Y  c #49362D",
"T  c #413E34",
"R  c #623C21",
"E  c #7A382F",
"W  c #3D411C",
"Q  c #3F4125",
"!  c #474114",
"~  c #45441D",
"^  c #564A1E",
"/  c #404122",
"(  c #44432B",
")  c #49452E",
"_  c #47482A",
"`  c #4C4A2D",
"'  c #494724",
"]  c #544C26",
"[  c #5A4D27",
"{  c #4E512A",
"}  c #5C542D",
"|  c #56532A",
" . c #434333",
".. c #4E4B34",
"X. c #4C4C3A",
"o. c #454439",
"O. c #534C33",
"+. c #514F38",
"@. c #4F5239",
"#. c #4B5134",
"$. c #525133",
"%. c #5A5432",
"&. c #54543C",
"*. c #5A563C",
"=. c #5C5B3C",
"-. c #5B5B34",
";. c #6C4825",
":. c #704D29",
">. c #645C2B",
",. c #635E3D",
"<. c #625B37",
"1. c #5C6237",
"2. c #6D6A2E",
"3. c #696135",
"4. c #65643C",
"5. c #6A663C",
"6. c #757136",
"7. c #4D4C41",
"8. c #4F5043",
"9. c #555442",
"0. c #5B5444",
"q. c #575945",
"w. c #5E5D43",
"e. c #56544C",
"r. c #5E5F49",
"t. c #5D5D50",
"y. c #665D41",
"u. c #615D54",
"i. c #5F6242",
"p. c #646343",
"a. c #6C6C45",
"s. c #64634B",
"d. c #6D6A49",
"f. c #686646",
"g. c #746441",
"h. c #6C704C",
"j. c #75734C",
"k. c #7B7747",
"l. c #626156",
"z. c #696754",
"x. c #6D6C55",
"c. c #6C6C5B",
"v. c #726E53",
"b. c #6E7957",
"n. c #737354",
"m. c #7B7453",
"M. c #7C7A56",
"N. c #7B7659",
"B. c #7C7A5B",
"V. c #757E59",
"C. c #7B7C65",
"Z. c #777562",
"A. c #8D2D26",
"S. c #806745",
"D. c #85704C",
"F. c #817F40",
"G. c #817B53",
"H. c #857D5A",
"J. c #8A7457",
"K. c #947A5D",
"L. c #817760",
"P. c #907F63",
"I. c #7D8548",
"U. c #7D8256",
"Y. c #7C825B",
"T. c #7F816B",
"R. c #828C3D",
"E. c #8B8544",
"W. c #838C42",
"Q. c #8C8A46",
"!. c #85834E",
"~. c #8E894D",
"^. c #868548",
"/. c #918A4C",
"(. c #8C9648",
"). c #92964A",
"_. c #8D8355",
"`. c #8B8B5B",
"'. c #858757",
"]. c #8E905C",
"[. c #9A9457",
"{. c #92845A",
"}. c #9DA657",
"|. c #A6AB5C",
" X c #848263",
".X c #8B8D60",
"XX c #898A67",
"oX c #988E69",
"OX c #8B9366",
"+X c #9A9A68",
"@X c #848475",
"#X c #908F75",
"$X c #9A9877",
"%X c #99A16C",
"&X c #9CA07E",
"*X c #A4A26A",
"=X c #ACA968",
"-X c #ABB366",
";X c #B6BA6D",
":X c #ABAB7D",
">X c #A7A27B",
",X c #AEB278",
"<X c #B5B675",
"1X c #B4BB72",
"2X c #B9BD74",
"3X c #B3B47D",
"4X c #B4BA7D",
"5X c #B8BB7E",
"6X c #BDC17A",
"7X c #939281",
"8X c #A9AB82",
"9X c #AEB383",
"0X c #BBB184",
"qX c #B6B885",
"wX c #B7AF88",
"eX c #BAC28D",
/* pixels */
"                                                                                          ",
"                                  t g t t t t t e                                         ",
"                          6 a j h i. XOXOXOX.X`.f.h h p e                                 ",
"                        ; <.H.{._.`.+X:X9XqX3X+X_._._.G.y.r                               ",
"                      q I j._._.[.*X<X5X4X4X5X<X=X[.~.~.k.I r                             ",
"                    X b M._.!.~.=X1X2X2X<X5X6X6X;X|.(.E.!.M.U @                           ",
"                    $ h d.G.!.W.(.}.-X;X2X2X2X-X}.(.R.W.I.d.n @                           ",
"                    $ q I -.a.I.W.W.).-X1X1X-X).W.W.W.6.1.W q %                           ",
"                    @ a O.L } k.k.^.E.E.Q.Q.Q.Q.^.k.!.<.k ..d @                           ",
"                    # 6 a l 5 1 1 P >.2.F././.2.P 4 9 5 K s 3 @                           ",
"                    + - ; 2 F G H S ^ %X4X4X=X;.S S D Z < 4 ; @                           ",
"                    # , e 2 D A.A.J [ 9XeXqX0X:.J E E D < 8 7 #                           ",
"                    # i U f Z F A R g.m..X.Xm.S.;.C C Z K Y z #                           ",
"                      v &.L.P.J.D.oXH.= 0 q * j.oXD.J.K.J.0.m                             ",
"                        $ M @.i.M.'.U.V.b.b.V.U.'.!.p.+.n *                               ",
"                  % O B 1._ q % : w.B.$.M.Y.#.n.p.q % q _ =.( @ O                         ",
"            % % % : r.XX'.5.h @ % +.p.: *.4.: s.w.% @ h p.M.XXn.3 @ - ;                   ",
"            ; 0.#X#X X Xn.p d U q w j k ~ k : e r q ( b 3 j f. XN.@Xz.;                   ",
"            = ) w...t w h & & d s. X$X>X:X8X8X$X Xs.h & % & O.v.*.w...;                   ",
"            h $.` : &     @ p ( y r ` `.3X,X`.{ y t ( d @     d 3 ..&.-                   ",
"            n d.p.p       - : p n $.a.`.].`.U.a.$./ d 3 @       r w.s.; .                 ",
"        % r $.` p %       - e n ( ..=.4.5.=.&.&.+.( N i -       . X.x.p + .               ",
"        X r &.r X         + 6 n ` *.n.$XqXqX+XN.w...N u #       . V Z.x.u .               ",
"    r +.r.s.q.i O         @ q h n ) d.$XqX4X*Xa.` n c 6 -         u V t.p X O             ",
"  @ : /  X#XT 7 >           @ & r d U %.%.4.j.` d p % O           O - e Q v $ $ % O       ",
"  X r f.n.+., > >         % d n = @ r d.oXoXm.d @ & U m -             % t @.C.&.&.l.z     ",
"    + q q ; #             @ = a ` ,.B.>XwX0X:XH.,.` d : %               $ p q. .r.@Xu X   ",
"                          @  .N.p.' L <.3.3.>.! ! ,.N...@                   : t.8.: -     ",
"                      @ @ ;  .v.f.} ] ] | [ ] ] >.5.d.) 3                     $ + X       ",
"                    o :  .l.N : &.B.B.$.' ] %.m.N.*.q m u.T z                             ",
"                    v q.T.s.v + @ O 6 X.&.&.&.e X O O V e.e. .p                           ",
"                : v ) r.s.e X           . o             X O ( x.X.g                       ",
"            % Q c.c.p : M e                               % e X.&X( %                     ",
"            - c.@XB ; X                                   @ O r Y.XXw.;                   ",
"            , X.o.%                                         O q -.'.h.;                   ",
"            - o. .; %                                         : ` j.p.:                   ",
"              - x 7.p ;                                         = / _ ;                   ",
"              . e o.9.M -                                       & Q _ %                   ",
"                  = 9. .+                                       % h n %                   ",
"                  : z.9.%                                     : g _ Q % X                 ",
"                  = ) n %                                     : h s.B.X.N x               ",
"                O * ..&.M ,                                     O U C.7XX.v 7.z           ",
"            % B ..p.M.w.p                                                                 ",
"          u l.v  .$Xn.n O                                                                 ",
"                                                                                          "
};
