/* XPM */
static char *_bafdfdf45974b5fa5035bebfdfefcd5agbBMpTkEuHGS1Zi[] = {
/* columns rows colors chars-per-pixel */
"45 45 223 2 ",
"   c None",
".  c #0B0600",
"X  c #0C0B02",
"o  c #0E0C0A",
"O  c #060400",
"+  c #130700",
"@  c #130D03",
"#  c #110E0B",
"$  c #1A0E06",
"%  c #0E1205",
"&  c #141203",
"*  c #1A1304",
"=  c #1C1904",
"-  c #14130C",
";  c #1B150A",
":  c #1D1A0B",
">  c #141311",
",  c #171813",
"<  c #1C1B14",
"1  c #1D1C1A",
"2  c #191613",
"3  c #270D01",
"4  c #21150D",
"5  c #221B0D",
"6  c #2A1808",
"7  c #341909",
"8  c #231C12",
"9  c #291C13",
"0  c #211D1B",
"q  c #351E15",
"w  c #1F2012",
"e  c #26220B",
"r  c #2B240C",
"t  c #2D2A0E",
"y  c #372E0E",
"u  c #3B330E",
"i  c #242214",
"p  c #2A2413",
"a  c #2D2B14",
"s  c #24231D",
"d  c #2A251B",
"f  c #2C291C",
"g  c #272A16",
"h  c #332B14",
"j  c #3B2C14",
"k  c #332C1B",
"l  c #3A2C1B",
"z  c #342414",
"x  c #2E341B",
"c  c #2E381D",
"v  c #3B3314",
"b  c #35321C",
"n  c #3B351D",
"m  c #3D3C1C",
"M  c #33341A",
"N  c #262522",
"B  c #2B2B24",
"V  c #282723",
"C  c #3A2F20",
"Z  c #343224",
"A  c #3C3223",
"S  c #3B3A24",
"D  c #35332A",
"F  c #3B362B",
"G  c #3C3A2C",
"H  c #3C3934",
"J  c #45260A",
"K  c #422B0C",
"L  c #40370E",
"P  c #412B1C",
"I  c #41351B",
"U  c #433B1C",
"Y  c #473718",
"T  c #55341A",
"R  c #653D1C",
"E  c #433B22",
"W  c #4B3D23",
"Q  c #433D2A",
"!  c #4A3C29",
"~  c #553C27",
"^  c #463E32",
"/  c #43401F",
"(  c #4B441D",
")  c #6C401E",
"_  c #464224",
"`  c #494326",
"'  c #4D4B25",
"]  c #45422C",
"[  c #4C442B",
"{  c #4C4B2B",
"}  c #554D24",
"|  c #534B2B",
" . c #574628",
".. c #5C542B",
"X. c #57572B",
"o. c #4B4533",
"O. c #4E4934",
"+. c #43423B",
"@. c #4D4B3B",
"#. c #464337",
"$. c #514633",
"%. c #534D33",
"&. c #544D39",
"*. c #5C4C38",
"=. c #555235",
"-. c #5C5535",
";. c #5E5A34",
":. c #55513B",
">. c #5A553A",
",. c #5D5B3C",
"<. c #644B2B",
"1. c #655C2E",
"2. c #66532A",
"3. c #644C35",
"4. c #625733",
"5. c #625A33",
"6. c #625C39",
"7. c #6B5C3B",
"8. c #6B5734",
"9. c #765936",
"0. c #66653C",
"q. c #69643D",
"w. c #6A6536",
"e. c #786838",
"r. c #7C783B",
"t. c #444441",
"y. c #534D42",
"u. c #5C4F40",
"i. c #545443",
"p. c #5B5443",
"a. c #5E5A43",
"s. c #5B544A",
"d. c #5B594A",
"f. c #5F5B50",
"g. c #645C42",
"h. c #655D4B",
"j. c #645645",
"k. c #705F47",
"l. c #665F57",
"z. c #646343",
"x. c #6B6544",
"c. c #65614A",
"v. c #6A6848",
"b. c #716B42",
"n. c #726C4C",
"m. c #7A6947",
"M. c #747547",
"N. c #74724C",
"B. c #79744B",
"V. c #78794C",
"C. c #696657",
"Z. c #746D53",
"A. c #776C58",
"S. c #757351",
"D. c #797353",
"F. c #76765C",
"G. c #7B735D",
"H. c #7D7A58",
"J. c #7F776A",
"K. c #7A7763",
"L. c #816239",
"P. c #856B47",
"I. c #82784B",
"U. c #85754B",
"Y. c #857C53",
"T. c #867856",
"R. c #927B52",
"E. c #807F6D",
"W. c #8B893F",
"Q. c #88843E",
"!. c #898544",
"~. c #8A8B43",
"^. c #84834B",
"/. c #8B844E",
"(. c #858A49",
"). c #838145",
"_. c #92844F",
"`. c #91934A",
"'. c #838355",
"]. c #898D52",
"[. c #84825F",
"{. c #898759",
"}. c #968654",
"|. c #908B5C",
" X c #9B8E54",
".X c #9E9E5A",
"XX c #999759",
"oX c #899251",
"OX c #99A250",
"+X c #A2AF5F",
"@X c #89836C",
"#X c #8E8A69",
"$X c #948D62",
"%X c #968A6D",
"&X c #8C9465",
"*X c #939D69",
"=X c #98966A",
"-X c #958E79",
";X c #9C9779",
":X c #A19C74",
">X c #A29765",
",X c #A7A969",
"<X c #ADB66A",
"1X c #B3B96D",
"2X c #A4A375",
"3X c #ABA67C",
"4X c #A9A77E",
"5X c #B2AE75",
"6X c #AEBB74",
"7X c #B3BC74",
"8X c #B9BC76",
"9X c #BABE79",
"0X c #B3B776",
"qX c #B1C173",
"wX c #BEC17B",
"eX c #969385",
"rX c #AFAD83",
"tX c #B2AF85",
"yX c #B2AE89",
"uX c #B9B58B",
"iX c #BAB98B",
"pX c #BEBB90",
"aX c #C7C59A",
/* pixels */
"                                                                                          ",
"                                                                                          ",
"                                g c c x x x x x M Z f                                     ",
"                    p k n E m _ z.[.&X&X*X*X*X&X&X[.z.] m / n a p                         ",
"                . : { M.'.].(.(.oXXX,X6X7X7X7X6X,XXX].].].^.^.M.{ e @                     ",
"              : h ' q.^.!.W.`.OX+X<X6XqX7X7X7X7X7X0X,X.X`.~.(.^.q.] k 8                   ",
"            . 5 -.Y./.!.Q.W..X<X1XqXqXqX6X7X9XwXwX8X1X,X.X~.!.(.{.H.y.8 #                 ",
"            & e [ b.U.R._._._. X.X,X<X7X9X9X9X8X0X,X.X`.~.Q.Q.).B.x.] 8 +                 ",
"            * 5 h Y  .7.m.U.R.}._./.XX,X5X5X5X,XXX/.^.^.I.r.r.w...U p ; $                 ",
"        + p j.G.k. .j 3 3 q 3.P.9.2.2.8.8.5. .I v v v I v L ( 4.g.j.^ 8 @                 ",
"        . p Z.%XP.<.T J J J 7 3 7 K K K j j j j l l h h W 4.7.7.n.G.y.8 +                 ",
"        X d h.T.9.R R ) ) R T T T ~ Y I j v I W E I I E | 5.b.B.x.o.k ; +                 ",
"        & @ + 6 8.R.P.9.9.9.L.L.U.P.3.P z j E $.$.$.[ ! U U ;.D.>.e @ *                   ",
"        + 5 %.D.$X>XXX X X}.L.8.8.3.~ P q 9 z C $.u.A $ * v x.%Xv.p .                     ",
"        . a S.:X$XI.w.2.2.<. .Y ! ! l 9 4 * $ 4 A &.o.! x.$XY.;./                         ",
"        % g ,.H.Y.U.U.m.3.Y P l C k 5 @ + $ d ^ $.$.` ( q.|.{.b.| e                       ",
"            F.Z.] A h.G.*.l k k 9 ; *   & * * k c.;X4X:X2X2X=X'.=.e &                     ",
"            i w ; & : 8 ; $ @ $ ; : : 9 G &.O.=.T.yXrX$Xx.E a p n O.>.                    ",
"                        : 8 8 d Q s.J.-X@XZ.{ n n.rXiX3X$XN.6.{ n p 5                     ",
"                  - # < ^ l.C.f.^ k k k n S b S N.2X2X{.z.Q k k S #.@.                    ",
"                    s B +.s.Z 8 5 5 @ ; >.=X2X=X'.0.0.q.V.[.H.c.o.d 8                     ",
"                    0 0 < : 8 8 9 9 5 e m X.' m e & M 6.0.=.[ Q O.d.y.                    ",
"                      D d i f A ] o.E n =.x.{ e & = z.tXaXiX#X>.O.p.@.G D                 ",
"                        p b a.K.p.! ] %.c.C.o.5 = t x.4XpXuX;XY.D.F.a.S f                 ",
"                        : 5 p h a h ` =.! p ; ; h %.[.tXtX=XN.%.=.z.,.[ Q                 ",
"                      i O.c.>.>.H.#Xx.m 5 @ 4 k k n n.3XuX3X|.b.;.-.-.,.a.                ",
"                . i i.K.c.c.@X;Xn._ a 5 5 9 5 4 5 r u ( ..w.} v t r 5 ; ;                 ",
"                X < i.E.a.] &.>.k 5 o.G.-X;X@XA.D.T.Y.I...u u } q.Z.p.k 5                 ",
"                  - @ : #.h.A * + * k &.g.x.%.E -.B.b.1.} Y L U W $.h.J.s.0 o             ",
"                      @ @ @ @ * 5 d k n | x.Y.|.I.w.1.1.5.4...| ! A 9 $ # #               ",
"                              d F H F b h y y v U ` [ [ ` / | 6.g.p.G < # o               ",
"                              < s s i i Z G Z p i d 8 i b ' 0.'.S.:.Z , o o o o o         ",
"                          - D +.t.+.f - < d i         ; a ' X.X.m = X                     ",
"                        X , +.C.+.s - o o             ; b ;.M.V.=.5 X                     ",
"                            , 1 V B 1 - - 2           ; ] H.|.'.=.8 X                     ",
"                                > , < < - X o         & k -.N.S.=.8 X                     ",
"                                  X , N B V , X       @ : t v m a * X                     ",
"                                    o # < f < - #         * k %.Q : &                     ",
"                                      > V D Z f s         & Z h.o.; O                     ",
"                                          & g G B > o     - F i.i.] Z                     ",
"                                        X & i Z B N 0 1       X f :.] : X                 ",
"                                  > , < < i G @.G s 1     - @ @ f :.i.] x :               ",
"                              1 H t.N , D i.i.@.Z ; X @ d H y.f.F.K.c.S i                 ",
"                                                : ; D C.+.d y.eXeXC.] : X                 ",
"                                                                                          "
};
