/* XPM */
static char *_19df1ffcb2041bac824b04192fc06c0e6tyiw1wcYQxIdYB[] = {
/* columns rows colors chars-per-pixel */
"45 45 214 2 ",
"   c None",
".  c #0B0601",
"X  c #0D0B01",
"o  c #0F0F0A",
"O  c #120C03",
"+  c #180F02",
"@  c #130E0A",
"#  c #180F08",
"$  c #141103",
"%  c #1A1404",
"&  c #1B1A03",
"*  c #15120A",
"=  c #1A160B",
"-  c #1C1A0C",
";  c #161212",
":  c #1B1512",
">  c #1F1B12",
",  c #1D191B",
"<  c #201509",
"1  c #221C0B",
"2  c #261D07",
"3  c #201713",
"4  c #221B12",
"5  c #231E1B",
"6  c #25230E",
"7  c #24280F",
"8  c #392F07",
"9  c #3B3408",
"0  c #252313",
"q  c #2B2514",
"w  c #252A10",
"e  c #2C2B14",
"r  c #26231A",
"t  c #2B2519",
"y  c #2E2B1C",
"u  c #312515",
"i  c #332B14",
"p  c #392E15",
"a  c #322C1B",
"s  c #3A2E1C",
"d  c #31251D",
"f  c #333416",
"g  c #34331C",
"h  c #3B341D",
"j  c #3E3819",
"k  c #2A2522",
"l  c #2E2B24",
"z  c #2E2929",
"x  c #302720",
"c  c #332D23",
"v  c #312F2A",
"b  c #343222",
"n  c #3B3523",
"m  c #3C3A23",
"M  c #36332A",
"N  c #3A3429",
"B  c #3D3A2A",
"V  c #3F3933",
"C  c #473D16",
"Z  c #453B1C",
"A  c #493C1B",
"S  c #433417",
"D  c #413624",
"F  c #413E24",
"G  c #41352B",
"H  c #413E2B",
"J  c #413E33",
"K  c #423B36",
"L  c #444119",
"P  c #49431E",
"I  c #4B4C1D",
"U  c #4C4323",
"Y  c #4A4A25",
"T  c #44422A",
"R  c #4A472F",
"E  c #4C492B",
"W  c #424125",
"Q  c #504228",
"!  c #544C2B",
"~  c #594C2C",
"^  c #514824",
"/  c #5F5826",
"(  c #54512D",
")  c #5B532C",
"_  c #5D582F",
"`  c #464432",
"'  c #4A4734",
"]  c #4D4C35",
"[  c #46433A",
"{  c #48443D",
"}  c #4E4B3B",
"|  c #534C33",
" . c #5A4E32",
".. c #524E3E",
"X. c #545235",
"o. c #5C5432",
"O. c #55533B",
"+. c #59563E",
"@. c #5D5B3C",
"#. c #615A28",
"$. c #615534",
"%. c #645A33",
"&. c #645D3A",
"*. c #655A3E",
"=. c #6B652D",
"-. c #78742F",
";. c #63613C",
":. c #6A613B",
">. c #696232",
",. c #777139",
"<. c #7D7939",
"1. c #4E4B40",
"2. c #4A4648",
"3. c #524F43",
"4. c #535143",
"5. c #5D5A43",
"6. c #5E5C4B",
"7. c #5A5443",
"8. c #5D5A54",
"9. c #635E4A",
"0. c #675D44",
"q. c #635E54",
"w. c #635F5D",
"e. c #646243",
"r. c #686444",
"t. c #6C6B42",
"y. c #63614C",
"u. c #6A664E",
"i. c #6D6A4D",
"p. c #736D4D",
"a. c #6F734D",
"s. c #7C7445",
"d. c #75724D",
"f. c #79734A",
"g. c #6B6754",
"h. c #6D6B54",
"j. c #6B6958",
"k. c #716E5F",
"l. c #747454",
"z. c #797554",
"x. c #7D7954",
"c. c #72725A",
"v. c #7D7C5C",
"b. c #797359",
"n. c #6B6862",
"m. c #7B7666",
"M. c #7C7A62",
"N. c #757363",
"B. c #82794E",
"V. c #817750",
"C. c #857F5C",
"Z. c #867D6B",
"A. c #87863A",
"S. c #89873C",
"D. c #8C8C3D",
"F. c #878A38",
"G. c #848243",
"H. c #898544",
"J. c #8C8B43",
"K. c #85824B",
"L. c #8B854D",
"P. c #8E8B4E",
"I. c #908F4A",
"U. c #8F9242",
"Y. c #97994D",
"T. c #848354",
"R. c #898A53",
"E. c #84835B",
"W. c #8A855C",
"Q. c #8A8B5B",
"!. c #868D5C",
"~. c #938B5F",
"^. c #8F9250",
"/. c #8A915B",
"(. c #919251",
"). c #969857",
"_. c #929559",
"`. c #AAAE5D",
"'. c #A2A558",
"]. c #848461",
"[. c #8C8A62",
"{. c #8B896A",
"}. c #958E65",
"|. c #8D9360",
" X c #9A9767",
".X c #90906F",
"XX c #9B996A",
"oX c #969065",
"OX c #9B9B76",
"+X c #979175",
"@X c #A09E6E",
"#X c #9DA367",
"$X c #AAAD66",
"%X c #A7A76C",
"&X c #B6BB6D",
"*X c #BABE6F",
"=X c #B3B668",
"-X c #A4A272",
";X c #ADA675",
":X c #A3A27B",
">X c #A8A57C",
",X c #ACAC7C",
"<X c #ABAC74",
"1X c #B2AC79",
"2X c #ADB475",
"3X c #B5BB73",
"4X c #B8BF76",
"5X c #B6B37D",
"6X c #B4B97C",
"7X c #B8BD78",
"8X c #B1B773",
"9X c #BBC179",
"0X c #AEA580",
"qX c #B9B786",
/* pixels */
"                                                                                          ",
"                                      0 0 7 7 7 w w                                       ",
"                              - e a g l.[.Q.|./.!.a.g e q 4                               ",
"                            6 5.x.E.R.R.#X6X6X2X#X/.T.].v.5.=                             ",
"                          1 h z.R.R.).$X3X7X3X4X3X$X_.R.W.z.m 1                           ",
"                        O h d.T.K.(.$X3X9X9X3X&X*X*X=X(.K.T.z.b .                         ",
"                        O h f.K.H.J.Y.`.&X9X7X*X=X`.Y.J.K.K.d.h O                         ",
"                        + 2 C =.<.A.F.U.'.8X7X&X'.D.D.H.<.>.P 6 +                         ",
"                        O u ) #.-.A.F.F.J.(.(.I.J.J.J.H.,.#.! q O                         ",
"                        O 1 Z #.<.S.A.J.G.G.R.P.H.G.H.L.s.o.F 4 #                         ",
"                        # 4 h ) s.L.L.%X5X1X;X;X1X1X;XB.! p a 3 #                         ",
"                        O 3 c p U $.%.%.%.:.:.&.%.%.&.Z p s N 3 .                         ",
"                        : 5 k c n h h Q  .$.$.o.~ U p p n G x 3 @                         ",
"                            3 t d u s Z.0.S ~ p p.+Xs u G K :                             ",
"                            V # O < u i S A C Z o.*.a < + O O                             ",
"                          t B a 1 0 D p A ! ^ ! Z i G 4 < a n e                           ",
"                    . X b h.[.r.i X % | X.U U U  .| % O i r.E.p.m X .                     ",
"                X b 6.O.].E.( h n a % n | ( P Z U D + q h F v.OX.Xu.y.b $                 ",
"                X B l.a.v.@.& $ 1 m 0.b.[.}.W.W.C.b.9.B 1 & T F ] M.v.m $                 ",
"                $ b ] e F R   X a H h T d.-XqX-Xp.H m F g =   X O q X.W e                 ",
"                X H u.g       * - y E ;.Q.<X5X,X[.;.Y f - X       g i.X.e                 ",
"              $ $ B 7.=       O M T 0 e f L I Y j e 7 T b X       - O.e.T +               ",
"        5 > = = H h.k.=       @ * n l..XOX:X,X>X:X.Xh.m = *       = c.c.] g 1 = -         ",
"      3 6.y.O.O.B r :         @ M H 0 e @.XXqX@X;.e 0 H b *         * r n X.X.u.g.y       ",
"      = 0 e g ` 0             ; X 4 } e.[.-X XXXE.r.' 0 $ O             $ i X.o.O.h.M O   ",
"      @ O - 0 =                 0 4 $ X m :.) ^ i O O 4 0                 & m j e t : @   ",
"        $ $                   * y n a n p.>XqX0Xp.h i n y $                   - 6 $ @     ",
"                              $ a | @.&.x.oX~.}.V.&.&.| a $                     $ .       ",
"                              O +.C._ 9 L _ $.%.A 8 ) W.5.X @                             ",
"                            = n m ! f.W.:.Z Z Z &.W.f.| H N : X                           ",
"                          M q.N.B % g H +.i.i.u.5.R g % n M.m.b X                         ",
"                      - B B y l r     X 0 g t y - .   $ - b y.h.} %                       ",
"                    - ' k.3.O                             - g.' b { >                     ",
"                  X 0 +.b * @                               - O c n.8.v o                 ",
"                $ g ;.v.B ; ,                                 O * r { v @                 ",
"                . g t.d.a k                                 = * l { v                     ",
"                X T T.;.0 z                               4.y [ J = n.                    ",
"                O F t.Y c 2.                            K = } } N c                       ",
"                O g E & 4.                              [ - y.b 4                         ",
"                O b | - 4.                            1.J ..} H 1.                        ",
"                O t n % 4.                            r t ' % [                           ",
"              @ O B y.` c [                         l M 4.5.- = J                         ",
"            5 { q.m.h.a `                           w.l } Z.j...N l                       ",
"        o , r r N 7.O.= 1.                            k c 6.} y 5 k 5 2.                  ",
"                                                                                          "
};
