/* XPM */
static char *_3f1d5c1d3e940579a321fdb1dc4d363Eb5kdCE6PKotfgVx[] = {
/* columns rows colors chars-per-pixel */
"45 45 134 2 ",
"   c #031800",
".  c #0A1F00",
"X  c #0D2600",
"o  c #122700",
"O  c #152D04",
"+  c #192E07",
"@  c #14260C",
"#  c #16290D",
"$  c #1A2D0C",
"%  c #1A3307",
"&  c #1D330C",
"*  c #1D3A0D",
"=  c #1B2E12",
"-  c #1F3212",
";  c #1F3C10",
":  c #21360F",
">  c #213D0E",
",  c #223612",
"<  c #243C13",
"1  c #283D16",
"2  c #223619",
"3  c #253C1B",
"4  c #2A3F1A",
"5  c #24450F",
"6  c #264314",
"7  c #294416",
"8  c #274812",
"9  c #2A4A15",
"0  c #264319",
"q  c #2B451A",
"w  c #2D4B19",
"e  c #2C4A18",
"r  c #2E481B",
"t  c #2D4A1A",
"y  c #2E4A1A",
"u  c #2E4B1B",
"i  c #2C4919",
"p  c #2C4D18",
"a  c #2D4E19",
"s  c #2E4F18",
"d  c #2C4C1B",
"f  c #2D4D1B",
"g  c #2E4C1A",
"h  c #2F4D1B",
"j  c #2E4F1A",
"k  c #29481C",
"l  c #2B481C",
"z  c #2B4B1C",
"x  c #2C491D",
"c  c #2F491C",
"v  c #2D4A1E",
"b  c #2E4B1F",
"n  c #2D4D1C",
"m  c #2F4C1C",
"M  c #2E4E1C",
"N  c #2D491C",
"B  c #314C17",
"V  c #304A1D",
"C  c #314B1E",
"Z  c #304C1C",
"A  c #304D1D",
"S  c #314D1D",
"D  c #304E1C",
"F  c #314F1D",
"G  c #314E1E",
"H  c #324E1E",
"J  c #324F1F",
"K  c #324C1C",
"L  c #2F5019",
"P  c #2F501B",
"I  c #30511A",
"U  c #31521B",
"Y  c #30511C",
"T  c #31521D",
"R  c #32531C",
"E  c #32501E",
"W  c #33541D",
"Q  c #36511B",
"!  c #39551D",
"~  c #3C581E",
"^  c #2F4C20",
"/  c #2F4C20",
"(  c #304D21",
")  c #314E22",
"_  c #324F23",
"`  c #314E22",
"'  c #335020",
"]  c #345121",
"[  c #355222",
"{  c #365323",
"}  c #325422",
"|  c #335523",
" . c #335024",
".. c #345125",
"X. c #355226",
"o. c #365327",
"O. c #375424",
"+. c #345624",
"@. c #355725",
"#. c #355223",
"$. c #385525",
"%. c #395626",
"&. c #3A5727",
"*. c #395625",
"=. c #365826",
"-. c #375927",
";. c #375927",
":. c #375428",
">. c #375428",
",. c #385529",
"<. c #39562A",
"1. c #3A572B",
"2. c #39562A",
"3. c #3B5828",
"4. c #385A28",
"5. c #395B29",
"6. c #3C5929",
"7. c #3D5A2A",
"8. c #3E5B2B",
"9. c #3A5C2A",
"0. c #3B5D2B",
"q. c #3B582C",
"w. c #3C592D",
"e. c #3F5C2C",
"r. c #3C5E2C",
"t. c #3D5F2D",
"y. c #3C5A2A",
"u. c #3F5C30",
"i. c #3E602E",
"p. c #3F612F",
"a. c #3F612F",
"s. c #405D2D",
"d. c #405D2D",
"f. c #416331",
/* pixels */
"  . o O + + + & , , , , < < 1 1 < < < : : & & & , : & & & & : , 1 < < , - & $ $ $ $ # # # ",
". o + & : & : , 1 1 1 1 1 1 4 7 1 1 1 < < < < < 1 < , : : , < < 4 4 1 < < , , , - - = = = ",
"O % > 1 1 1 1 6 r q q 7 7 7 q q 6 6 6 7 7 q q q q q 6 < < < 1 6 q q q 7 7 4 4 4 3 3 2 2 2 ",
"% > 6 q q 7 7 q V c q q 7 7 7 q 6 6 q q i c V V V i 7 6 6 6 6 6 q q q q k r r r q 4 3 3 3 ",
"* 6 7 i i 7 7 7 i i 9 7 7 7 7 7 6 7 7 i i A A A i i 7 6 6 6 7 7 7 q q q q r r r k 7 0 3 3 ",
"> 6 i a i 9 7 7 9 9 7 6 6 6 7 7 7 7 e i a A A E 9 9 6 6 6 7 9 i 7 7 7 7 i i l l k 0 0 0 0 ",
"5 8 a P a 9 9 9 9 8 6 6 6 8 9 9 e a a a P E E E 9 8 6 6 8 9 a U i i i i i i i i q 0 0 0 0 ",
"5 9 U U a 9 9 9 9 8 8 8 9 9 s s U U U U U U E E 9 9 8 8 9 s U W P a m m m a l l l q 0 0 0 ",
"m A ' ] ' A i i i i i i i i i i A A A A ' ' ' ' i a A A A A A m ] ' ' A A A ] ] i m i i i ",
"i A A ' ' A i i i i i i i i m m A A A A A A A A 7 7 i m A A A A ] ] ' A A ' ] ] i i i i i ",
"i i A A ' A m i i i i i i m A A A A m m m m m m > 6 7 i A ] ] ] ] ] ' A A ' ] ] i i i i i ",
"7 i m A A A A m i i m m A A A A A m m i i i i i 6 7 i A ' ] O.O.' A A A A A A ' m m i i i ",
"6 7 i A A A A A m A A A A A A ' A A A A i i i i m A ' ] { O.] ] A m i i i i m A A A A A m ",
"6 6 i m A A A A A A A A ] ' ] ] ' A A A m i i i ] ] O.$.$.O.] ] A A i i i i m A ] ] ] ] A ",
"> 6 7 i A ' E A A A A ' ] ] ] ] ] ] ' A A m i i ] ] O.O.O.] ] ] ] ' A A A A ' ] $.O.O.] ] ",
"> 6 7 i A ' ' E A ' ' ] ] ] ] ] O.] ] ' A A m i A A ] ] ] ] ] ] $.O.] ] ] ] O.$.$.$.$.$.$.",
"q q c (  ...o.o.c (  . .( (  ...] ' A A A ] ] ] $.$.O.O.$.$.3.6.O.] A ' ] O.] ' $.$.$.$.O.",
"q q c (  .......c ( .. .( (  ...] ] ] ' A ' ] ] $.$.O.O.$.$.3.6.3.$.] O.$.3.$.O.O.O.] ] ] ",
"0 q c ^ (  .....^ ( ....( ( ....$.O.] ] A A ' ' $.$.O.O.$.$.3.6.e.6.&.6.6.e.6.3.] ] ] ] ] ",
"6 0 q c ( (  . .( ( ....( ( ..:.3.$.O.] ' A A A $.$.$.O.$.$.3.6.s.6.3.6.e.s.6.6.O.O.O.] ] ",
"6 6 q c ^ ( ( ( (  ..... . ...<.6.$.$.] ] ' ' ' $.$.O.O.$.$.3.6.6.3.$.6.6.6.6.$.3.$.$.$.$.",
"< 6 0 l c ^ ( ( ( ..o..... ...<.3.$.$.] ] ] ] ] $.$.O.O.$.$.3.6.6.$.$.$.6.6.3.$.6.6.6.3.$.",
"< 6 6 q c c ^ ^ ( ..:.:.......<.$.$.O.] ] ] $.$.$.$.O.O.$.$.3.6.6.3.$.$.6.6.6.$.3.3.$.$.$.",
"< < 6 q c c c c ( ..:.:.....:.<.$.O.] ] ] O.$.3.$.$.O.O.$.$.3.6.6.6.$.3.6.e.6.&.$.$.$.$.O.",
"* * < 6 q k l c ( ..<.<.<.:.<.q.$.$.$.3.3.3.6.6.] ] ] $.$.3.6.6.9.3.3.3.e.i.i.9.=.=.O.} } ",
"6 0 q l / c c m ( ..<.<.<.<.<.w.3.3.3.3.3.$.$.$.] O.$.$.3.6.6.6.e.9.3.9.i.i.i.e.3.=.O.O.} ",
"c ^ ( (  . .' (  .:.q.w.q.<.w.w.6.6.6.3.$.$.$.$.$.$.$.6.6.6.e.s.i.9.9.9.i.f.i.i.9.9.=.=.O.",
"c c ^ (  . . . ...<.w.w.w.q.w.u.e.e.6.6.$.$.O.] 6.6.6.6.e.s.s.s.i.e.9.r.i.f.p.i.9.9.3.=.=.",
"6 0 q c ( ( _ _ ..<.w.w.w.q.w.u.e.e.6.6.3.$.O.] 6.6.6.e.e.s.s.s.i.9.9.9.i.f.i.i.9.9.3.=.=.",
"< < 0 q c ( ( _  .:.q.w.q.<.w.w.6.6.6.3.3.$.$.$.6.6.6.6.e.e.e.e.9.9.4.9.e.i.i.9.9.3.=.=.O.",
"6 0 q c ^ ( ( ( ( ..<.<.<.<.<.w.3.3.3.3.6.3.3.3.6.6.6.6.6.6.6.6.3.=.O.=.9.e.9.3.3.=.O.O.} ",
"c c ( ( ( ( ( ( ( ..<.<.<.:.<.q.$.$.$.3.6.6.6.6.6.6.6.6.6.6.6.3.3.O.O.O.3.9.9.=.=.=.O.} } ",
"* ; 6 6 q c ( (  .( ( ( ( (  ...$.$.$.$.$.$.$.$.6.6.6.6.6.6.6.6.$.$.$.3.$.$.$.O.3.$.] ' A ",
"< < 6 0 l c ( _ ( ( ( ( (  .....$.$.$.$.$.$.$.$.3.3.3.6.6.6.6.e.3.3.6.6.3.$.O.] $.$.] ' A ",
"< 6 6 q c ^ (  .^ ^ ^ ( ( ..:.<.$.$.$.$.$.$.$.$.O.$.$.3.6.6.s.s.6.6.e.6.6.$.] ] $.$.] ' A ",
"< 6 6 0 l c ( ( c c c ^ ( ..<.<.$.$.$.$.$.$.$.$.] ] $.$.6.s.s.s.s.s.s.6.6.$.] ] $.O.] A A ",
"< 6 6 0 q c c ^ c c c ^ ( ..<.<.$.$.$.$.$.$.$.$.] ] O.$.6.6.s.s.e.e.e.6.3.$.] ' $.O.] A m ",
"6 6 0 q l c ^ ^ ^ ^ ^ ( ( ..:.<.$.$.$.$.$.$.$.$.] ] O.$.3.6.6.6.6.6.6.3.$.O.] ' $.] ' A i ",
"q l c c ( (  . .( ( ( ( (  .....$.$.$.$.$.$.$.$.O.O.$.$.$.$.3.3.O.$.$.$.$.] ] ' O.] ' A i ",
"^ ^ ^ ( ......:. .( ( ( ( (  ...$.$.$.$.$.$.$.$.$.$.$.$.$.$.$.$.] ] ] O.] ] ] ' O.] ' A i ",
"i J { *.O._ A A { ] J A K K K K K K V A J J Q ! *.*.*.*.~ ~ ~ ~ ! ! ! ! ! ~ O.*.O.{ ] J K ",
"7 K ] O.] _ _ A { ] J A V K V V V V V A J J Q Q O.O.! ! ! ! ! ! Q ! ! ! ! ! ! ! O.{ J A K ",
"> 6 V _ ( ( A ( ] _ A V c i c c q i c V A A J J Q Q Q Q Q Q Q Q Q Q Q Q Q Q J J ] J A i q ",
"O & 1 q r r r c ( c r q 7 7 7 7 6 7 7 q q i i i J J B B B B B B B B B B B B K K K i q 6 6 ",
"X O & 1 1 1 7 7 k 7 7 1 1 1 1 1 1 1 1 1 6 6 6 7 V V K K B B B B B B B e K i q q 6 6 < , , "
};
