/* XPM */
static char *result[] = {
/* columns rows colors chars-per-pixel */
"45 45 38 1 ",
"  c gray86",
". c gainsboro",
"X c #DDDDDD",
"o c gray87",
"O c #DFDFDF",
"+ c gray88",
"@ c #E1E1E1",
"# c #E2E2E2",
"$ c gray89",
"% c #E4E4E4",
"& c gray90",
"* c #E6E6E6",
"= c #E7E7E7",
"- c gray91",
"; c #E9E9E9",
": c #EAEAEA",
"> c gray92",
", c #ECECEC",
"< c gray93",
"1 c #EEEEEE",
"2 c #EFEFEF",
"3 c gray94",
"4 c #F1F1F1",
"5 c gray95",
"6 c #F3F3F3",
"7 c #F4F4F4",
"8 c gray96",
"9 c #F6F6F6",
"0 c gray97",
"q c #F8F8F8",
"w c #F9F9F9",
"e c gray98",
"r c #FBFBFB",
"t c gray99",
"y c #FDFDFD",
"u c #FEFEFE",
"i c white",
"p c None",
/* pixels */
"ppppppppppppppppppppppppppppppppppppppppppppp",
"ppppppppppppppppppppppppppppppppppppppppppppp",
"ppppppppppppppppppppppppppppppppppppppppppppp",
"ppppppppppppppppppppppppppppppppppppppppppppp",
"ppppppppppppppppppppppppppppppppppppppppppppp",
"ppppppppppppppppppppppppppppppppppppppppppppp",
"ppppppppppppppppppppppp%*+pppppp#&%%#$#pppppp",
"pppppppppppppppppp%ppp$%1$X@$pp%;4wtw5=oppppp",
"pppppppppppppppppw<pp+&>y1=:=##&u4-=ri:-+pppp",
"ppppppppppppppppyt;p$69tiuii7:,62%pp%tq$&#ppp",
"ppppppppppppppppp:p%=utyuyiu3$pO@.p#$0ir6=ppp",
"ppppppppppppppppppp,7iiiiiiy4-pp$%O*wiui9;ppp",
"ppppppppppppppppppp#11qiiii9&X@=*9qqiiui1pppp",
"pppppppppppppppp*pppp&8iiw06:*:<13ri910pppppp",
"pppppppppppppppe*@#o;*3w5:>67679r-@2<&ppppppp",
"pppppppppppppppiiw2>59eitquie1,3ei7-ppppppppp",
"ppppppppppppppp>156qwyiuutii:+pOwey;$pppppppp",
"pppppppppppppppp@+;%*0yiiyuw;ppp-:2>+pppppppp",
"ppppppppppppppppp$6-*eriiir6=ppppp=7*pppppppp",
"pppppppppppp1*ppp;tw0iyuyiy8>@pppp&8;Oppppppp",
"pppppppppp8ri9,pp@2yiiiyiiiyq<#ppp;w9@ppppppp",
"ppppppppeuuiiie2;;1yiriiiiiiiq>ppp<ti-=pppppp",
"pppppppur<8ytuiuieyiiiiiirui03,%O>-7r-&$ppppp",
"pppppp1i4X<urreyiwiuritiq0yw&O*=2y:47>-1ppppp",
"pppppp2i:p+-@*&*%3quiiri1Ory3<w09,+#+&o;ppppp",
"pppppp1i3pppppppp;<7iiyi6.1q4&&#,w33*$ppppppp",
"ppppp+;u5ppppppppp$:0iui0@*:=Op@,iei5@ppppppp",
"pppppp=e8pppppppppp%3tiit1&pppp%004it$ppppppp",
"pppppp&5eppppppppppp:qiiiq;#pppOu-$8i<Xpppppp",
"pp$*%p@$0:pppppppppp&8iiii97&p&<0$O:u0&pppppp",
"pp:5<>>*99pppppppppp$7iutiut%O1e;%p*92;pppppp",
"po4iyiiwiupppppppppp$7iytieq-292 ppp,.&pppppp",
"pp#-<7riiipppppppppp=6yiuiiwet8;ppppppppppppp",
"ppp@$*->28ppppppppppp*><wiiiy0:Oppppppppppppp",
"pppppp@+#=pppppppppppp$$,4761;%pppppppppppppp",
"pppppppppppppppppppppppp@#$#+pppppppppppppppp",
"ppppppppppppppppppppppppppppppppppppppppppppp",
"ppppppppppppppppppppppppppppppppppppppppppppp",
"ppppppppppppppppppppppppppppppppppppppppppppp",
"ppppppppppppppppppppppppppppppppppppppppppppp",
"ppppppppppppppppppppppppppppppppppppppppppppp",
"ppppppppppppppppppppppppppppppppppppppppppppp",
"ppppppppppppppppppppppppppppppppppppppppppppp",
"ppppppppppppppppppppppppppppppppppppppppppppp",
"ppppppppppppppppppppppppppppppppppppppppppppp"
};
