/* XPM */
static char *a8dfb6dec4334024fda14cefe9888b25vcAwg5z0P1An080S[] = {
/* columns rows colors chars-per-pixel */
"45 45 227 2 ",
"   c None",
".  c #0C0601",
"X  c #0D0B01",
"o  c #0E0D0A",
"O  c #060701",
"+  c #130D02",
"@  c #1E0C03",
"#  c #130D0A",
"$  c #190B05",
"%  c #0F1206",
"&  c #141204",
"*  c #1B1505",
"=  c #191802",
"-  c #13130D",
";  c #1B140A",
":  c #1C1B0C",
">  c #161412",
",  c #1A1512",
"<  c #171813",
"1  c #1C1C15",
"2  c #1D1C1A",
"3  c #260C00",
"4  c #221C0C",
"5  c #28180A",
"6  c #351604",
"7  c #231D13",
"8  c #271D19",
"9  c #311B11",
"0  c #1E200E",
"q  c #25210C",
"w  c #28220D",
"e  c #2B280D",
"r  c #3E280B",
"t  c #3D340D",
"y  c #242114",
"u  c #2B2315",
"i  c #2C2A14",
"p  c #24231B",
"a  c #2B261D",
"s  c #2D2B1D",
"d  c #272813",
"f  c #322C15",
"g  c #3B2D14",
"h  c #312C1C",
"j  c #3C2D1A",
"k  c #352616",
"l  c #35321C",
"z  c #39351B",
"x  c #333B1F",
"c  c #3D3A1E",
"v  c #3A3614",
"b  c #2C321B",
"n  c #262722",
"m  c #292722",
"M  c #2C2C23",
"N  c #2E2E29",
"B  c #332D23",
"V  c #372C24",
"C  c #353324",
"Z  c #3B3423",
"A  c #343B23",
"S  c #3E3A24",
"D  c #38342C",
"F  c #3D3B2C",
"G  c #33342D",
"H  c #343433",
"J  c #3B3A31",
"K  c #402C17",
"L  c #43281E",
"P  c #433B14",
"I  c #413B1B",
"U  c #4A3B1E",
"Y  c #423218",
"T  c #5C3315",
"R  c #573217",
"E  c #673E1D",
"W  c #423322",
"Q  c #433C25",
"!  c #443C2B",
"~  c #4A3C2C",
"^  c #4B3F24",
"/  c #573C27",
"(  c #423D32",
")  c #493C31",
"_  c #623B22",
"`  c #3F401F",
"'  c #48451D",
"]  c #454424",
"[  c #4C4524",
"{  c #4E4B26",
"}  c #45432C",
"|  c #4C432C",
" . c #4C4A2C",
".. c #464825",
"X. c #544B23",
"o. c #52432C",
"O. c #5B4C2B",
"+. c #584727",
"@. c #5C522C",
"#. c #5F5E2F",
"$. c #56512A",
"%. c #454433",
"&. c #4B4435",
"*. c #4B4932",
"=. c #4A453B",
"-. c #4C4B3B",
";. c #534B32",
":. c #5C4B31",
">. c #534B3C",
",. c #56493B",
"<. c #555333",
"1. c #5C5433",
"2. c #5B563A",
"3. c #5E5B3D",
"4. c #595838",
"5. c #654A2E",
"6. c #67572E",
"7. c #664C37",
"8. c #635432",
"9. c #6A5332",
"0. c #625A36",
"q. c #615D3D",
"w. c #695B36",
"e. c #72583A",
"r. c #704C29",
"t. c #6A683B",
"y. c #6A643A",
"u. c #746B3D",
"i. c #746737",
"p. c #7D733C",
"a. c #757035",
"s. c #504B42",
"d. c #555342",
"f. c #595641",
"g. c #5D5A43",
"h. c #59574A",
"j. c #53514B",
"k. c #625C44",
"l. c #6A5D45",
"z. c #625B4A",
"x. c #655849",
"c. c #615B52",
"v. c #6A6544",
"b. c #6A654D",
"n. c #686747",
"m. c #736C45",
"M. c #796848",
"N. c #7C7543",
"B. c #77774C",
"V. c #777549",
"C. c #666453",
"Z. c #6D6454",
"A. c #6C6B54",
"S. c #6B6A5A",
"D. c #726B54",
"F. c #736D5B",
"G. c #7A6A54",
"H. c #757353",
"J. c #7D7B54",
"K. c #7F7C5C",
"L. c #797456",
"P. c #7B7763",
"I. c #676862",
"U. c #80643D",
"Y. c #836B46",
"T. c #8B7C4D",
"R. c #817B49",
"E. c #847D52",
"W. c #827D5C",
"Q. c #877957",
"!. c #967D52",
"~. c #817B61",
"^. c #877565",
"/. c #807C73",
"(. c #85853E",
"). c #878445",
"_. c #878845",
"`. c #8B8A42",
"'. c #83854C",
"]. c #88894D",
"[. c #898649",
"{. c #92834E",
"}. c #908D49",
"|. c #93964D",
" X c #8C8251",
".X c #84845D",
"XX c #89845B",
"oX c #8C895C",
"OX c #868855",
"+X c #968957",
"@X c #8C9254",
"#X c #9D9B54",
"$X c #97965C",
"%X c #9BA25B",
"&X c #8E8A63",
"*X c #888463",
"=X c #928F6D",
"-X c #948E61",
";X c #8D9665",
":X c #94926B",
">X c #979767",
",X c #8E8A7D",
"<X c #9E9075",
"1X c #A49C6A",
"2X c #A09D72",
"3X c #97A16C",
"4X c #A7AA67",
"5X c #ABB469",
"6X c #B1BB6E",
"7X c #B3B26E",
"8X c #ABA372",
"9X c #ACA97F",
"0X c #A3A278",
"qX c #B3BB74",
"wX c #B9BB75",
"eX c #BDBE7A",
"rX c #B3BC78",
"tX c #AEB976",
"yX c #AFC070",
"uX c #B1C172",
"iX c #C0C17B",
"pX c #969380",
"aX c #ADA983",
"sX c #B1AE84",
"dX c #B8B58C",
"fX c #B7B389",
"gX c #C2C195",
/* pixels */
"                                                                                          ",
"                                                                                          ",
"                                    s A A x x x x A A A b                                 ",
"                      q d l c .... .n..X;X>X3X3X3X;X;X.Xn. .....Q l u ;                   ",
"                    + q  .V.'.].].@X@X$X4XqXrXqXrXtX4X%X@X].].@XOXB. .: X                 ",
"                  1 C  .v.'._.`.|.%X5XqXwXwXqXqXqXuXyX6X5X%X|._.).).u.$.z 4               ",
"                X 7 d.W.OX]._.`.#X4X7XwXeXiXwX6X6XuXuXyX6X5X#X`.).[. XT.1.4 .             ",
"                + : S q.m.R.(.(._.}.#X4X7XwXeXeXeXrX5X4X#X+X{.{.{.T.Y.w.^ 4 +             ",
"                + ; u Q $.y.a.a.p.N.N.N. X$X1X8X8X1X+XT.T.+XT.M.w.5.+.U j k u             ",
"                + 7 &.b.v.1.[ P t g g g g g U +.O.O.+.+.9.e./ 5 @ 3 k :.G.^.x.9 +         ",
"                X 7 >.F.D.v.v.0.^ g k k g g g g g r r r 6 3 6 R T R R / M.<XG.a .         ",
"                + ; u S 2.m.y.0.:.o.o.| o.o.^ g g Y [ 8.9.5._ T T T E r.e.l.&.7 +         ",
"                    + w v.XX2.g f j W ! ~ ~ W j k K :.M.Y.U.Y.!.!.!.+X!.9.5 + + &         ",
"                    . 4 k.*Xm.[ 5 ; ) Z.,.V 9 5 9 L / 7.7.9.i.U.p.p.{.1X8X<Xb.u .         ",
"                        v $. X1XL.;.| Q k 5 @ @ @ ; u W W Y U O.6.6.i.u.E.&Xn.d X         ",
"                    X q 1.E.oXoXt.$.1.l.x.,.a $ . + 7 s h j j K :.Q.Q.G.L.W.n.i %         ",
"                    w f  .y.J.&X2X9XdXaXb.f 4 7 4   . + ; u u h &.z.&.w h d.C.            ",
"                    ! S l f z  .m.>XsXsXW.<.2.b.z.>.( V 7 + X X X + * & & &               ",
"                    C C z c Q <.J.2XfXaXv.e i *.b.P.Z.>.=.=.( D a #                       ",
"                    a B %.f.b.H.J.OX-X>XoXL.H.A.| 4 ; 7 h ( c./.c.M 1 -                   ",
"                    ( F S S }  .{ ' v z <.B.OXB.| * * u u u a B a 7 ,                     ",
"                + y &.z.z.n.K.:X0X:X<.= & e ` <...f w w 4 ; : y a B N                     ",
"                &.-.f.2.Q } .XdXgX9Xq.q = i 4.L.k.Q  .z.b.g.! y :                         ",
"                : h 3.K.*X=X2X9XdXaXH.c 4 * s -.f.2.S w Q D.f.l d                         ",
"                g.3.3.1.] ] m.>XfXfX*X;.h y ; * f  .3.q. .f i h s                         ",
"                S S c I [ 0.E.-XoXV.[ q 4 7 ; + + w ;.K.&X*X~.H.g.%.C                     ",
"                . * Z ;.[ I P P X.8.1.:.;.,.z.Z.z.>.l w *.~.A.*.b.pXS.y O                 ",
"              p d.F.D.l.O.U t t $.m.E.Q.k.~ x.W.~.Z.! * * i *.F.Z.&.s : &                 ",
"            # , 8 V Z Q o.O.O.+.@.6.w.u.E.XXQ.H.0.Q u * + & 4 s y + X                     ",
"                # ; a Z Q [ $.1.1.1.@.@.X.X.' I z l ! =.D : +                             ",
"        - o o o o 7 =.F.=X:Xq.f i h h B h h l l l s p 7 m                                 ",
"        o o       - & 4 ' #.t.#.Z :       ; s D p - p J G n 2                             ",
"                    X :  .t.#.' d ; p         & X & 1 G j.I.s.< O                         ",
"                    X 7 2..X&XJ.} ;             # o - p N H N 1                           ",
"                    X 7 4.J.J.v.z *         > o & < 2 p 1                                 ",
"                    X ; l { ] v 4 +       . > p n n 1 o O                                 ",
"                    + : S  .f = &       o - 1 p 1 - o                                     ",
"                    X : } d.l &         < 1 N J m -                                       ",
"                    : s d.C.F *       > N %.s & X                                         ",
"                X : %.f.h +         2 2 m M y & X                                         ",
"              : d A *.*.u + X     2 8 m J -.C 0 : < >                                     ",
"              : s } A.P.C.-.( D p X X ; D -.d.-.C 2 n H H 2                               ",
"                X : %.A.,X,Xs.B J =.a - y                                                 ",
"                                                                                          ",
"                                                                                          "
};
