/* XPM */
static char *f62491080d434701d8d6f3668eb9386e5icGFQCPxUTnyro9[] = {
/* columns rows colors chars-per-pixel */
"45 45 163 2 ",
"   c None",
".  c black",
"X  c #020202",
"o  c gray1",
"O  c #040404",
"+  c gray2",
"@  c #060606",
"#  c #070707",
"$  c gray3",
"%  c #090909",
"&  c gray4",
"*  c #0B0B0B",
"=  c #0C0C0C",
"-  c gray5",
";  c gray6",
":  c #101010",
">  c gray7",
",  c #131313",
"<  c gray8",
"1  c #151515",
"2  c #161616",
"3  c gray9",
"4  c #181818",
"5  c #191919",
"6  c gray10",
"7  c #1B1B1B",
"8  c gray11",
"9  c #1D1D1D",
"0  c #1E1E1E",
"q  c gray12",
"w  c gray13",
"e  c #232323",
"r  c gray14",
"t  c #252525",
"y  c gray15",
"u  c #272727",
"i  c gray16",
"p  c #2D2D2D",
"a  c gray18",
"s  c gray19",
"d  c #313131",
"f  c #323232",
"g  c gray20",
"h  c #343434",
"j  c #353535",
"k  c gray21",
"l  c #373737",
"z  c gray22",
"x  c #3A3A3A",
"c  c gray23",
"v  c #3C3C3C",
"b  c #3E3E3E",
"n  c #3F3F3F",
"m  c #434343",
"M  c #464646",
"N  c #484848",
"B  c gray29",
"V  c gray31",
"C  c #505050",
"Z  c #555555",
"A  c gray34",
"S  c #585858",
"D  c gray35",
"F  c #5A5A5A",
"G  c #5B5B5B",
"H  c #5D5D5D",
"J  c gray37",
"K  c #5F5F5F",
"L  c #626262",
"P  c gray39",
"I  c #646464",
"U  c gray40",
"Y  c #686868",
"T  c DimGray",
"R  c #6C6C6C",
"E  c #6F6F6F",
"W  c gray44",
"Q  c #717171",
"!  c #727272",
"~  c #747474",
"^  c gray46",
"/  c gray47",
"(  c gray48",
")  c #7C7C7C",
"_  c gray50",
"`  c gray51",
"'  c #838383",
"]  c #848484",
"[  c #888888",
"{  c #898989",
"}  c gray54",
"|  c #8B8B8B",
" . c #8D8D8D",
".. c gray56",
"X. c #909090",
"o. c gray57",
"O. c gray58",
"+. c #959595",
"@. c gray59",
"#. c #989898",
"$. c #9A9A9A",
"%. c gray61",
"&. c #9D9D9D",
"*. c #A0A0A0",
"=. c #A2A2A2",
"-. c gray64",
";. c #A4A4A4",
":. c gray65",
">. c #AAAAAA",
",. c gray67",
"<. c #ACACAC",
"1. c #AEAEAE",
"2. c #AFAFAF",
"3. c gray69",
"4. c #B1B1B1",
"5. c #B2B2B2",
"6. c #B4B4B4",
"7. c #B6B6B6",
"8. c #B7B7B7",
"9. c gray72",
"0. c gray73",
"q. c #BCBCBC",
"w. c gray",
"e. c gray75",
"r. c #C0C0C0",
"t. c #C1C1C1",
"y. c gray77",
"u. c #C5C5C5",
"i. c gray78",
"p. c gray79",
"a. c #CBCBCB",
"s. c gray80",
"d. c #CDCDCD",
"f. c #CECECE",
"g. c gray81",
"h. c #D0D0D0",
"j. c gray82",
"k. c #D2D2D2",
"l. c LightGray",
"z. c gray83",
"x. c #D5D5D5",
"c. c gray84",
"v. c #D7D7D7",
"b. c #D8D8D8",
"n. c gray85",
"m. c #DADADA",
"M. c gray86",
"N. c gainsboro",
"B. c #DDDDDD",
"V. c gray87",
"C. c #DFDFDF",
"Z. c gray88",
"A. c #E1E1E1",
"S. c #E2E2E2",
"D. c gray89",
"F. c #E4E4E4",
"G. c gray90",
"H. c #E6E6E6",
"J. c #E7E7E7",
"K. c gray91",
"L. c #E9E9E9",
"P. c #EAEAEA",
"I. c gray92",
/* pixels */
"                                            O % = O                                       ",
"                                          6 I =.<.[ x O                                   ",
"                                        p >.S.B.B.H.v.I %                                 ",
"                                      r <.B.g.g.g.g.v.M.K                                 ",
"                      % d G G l %     ] M.g.g.g.g.g.a.v.y.x                               ",
"                    9 ' l.B.S.v.[ 6 v g.l.M.S.H.S.v.g.g.M. .                              ",
"                  6 @.B.l.a.g.l.B.=.%.v.S.H.H.H.H.H.B.g.g.a.v                             ",
"                  ( M.a.a.g.g.g.g.S.B.B.H.H.H.H.H.H.H.M.g.v.^                             ",
"                m g.g.v.B.S.B.l.g.S.B.H.H.H.H.H.H.H.H.H.l.l.:.> X                         ",
"                X.v.B.H.H.H.H.H.B.H.H.H.H.H.H.H.S.H.H.H.B.g.l.=.I 9                       ",
"              l y.B.H.H.H.H.H.H.H.H.H.H.H.H.B.l.l.l.M.H.H.l.g.M.S.8.x                     ",
"              T M.H.H.H.H.H.H.H.H.H.H.H.H.v.g.g.g.g.g.l.S.M.a.g.g.B.t.l                   ",
"              @.H.H.H.H.H.H.H.H.H.H.H.H.v.l.M.S.S.M.l.g.v.B.l.g.g.g.B.%.2                 ",
"            e 8.K.H.H.S.S.H.H.H.H.H.H.B.l.S.H.H.H.H.H.v.g.M.H.S.l.g.g.B.G X               ",
"            v g.K.B.l.g.g.l.M.H.H.H.H.S.S.H.H.H.H.H.H.H.v.g.S.H.H.l.a.M.t.' A 6           ",
"            m B.B.g.a.g.g.g.g.v.H.H.H.H.H.H.H.H.H.H.H.H.S.g.v.H.H.S.g.g.l.v.B.>.d         ",
"        O l =.B.g.l.M.S.S.B.l.g.M.H.H.H.H.H.H.H.H.H.H.H.H.M.l.H.H.H.M.g.a.a.g.M.0.p       ",
"        G y.M.l.v.H.H.H.H.H.H.B.S.H.H.H.H.H.H.H.H.H.H.H.H.S.l.S.H.H.H.B.M.l.g.g.B.#.2     ",
"      B a.g.g.l.H.H.H.H.H.H.H.H.H.H.H.H.H.H.H.H.H.H.H.H.H.H.v.M.H.H.H.H.H.H.M.g.g.M.G     ",
"    r 3.l.M.l.S.H.H.H.H.H.H.H.H.H.H.H.H.H.H.H.H.H.H.H.H.H.H.B.v.H.H.H.H.H.H.H.M.g.v.:.6   ",
"    W v.B.B.M.H.H.H.H.H.H.H.H.H.H.H.H.H.H.H.H.H.H.H.H.H.H.H.S.v.H.H.H.H.H.H.H.H.v.g.g.M   ",
"  r 8.S.H.M.S.H.H.H.H.H.H.H.H.H.H.H.H.H.H.H.H.H.H.H.H.H.H.H.H.v.H.H.H.H.H.H.H.H.S.g.v.(   ",
"  A M.H.H.M.H.H.H.H.H.H.H.H.H.H.H.H.H.H.H.H.H.H.H.H.H.H.H.H.H.M.H.H.H.H.H.H.H.H.H.v.l.=.  ",
"  [ K.H.S.B.H.H.H.H.H.H.H.H.H.H.H.H.H.H.H.H.H.H.H.H.H.H.H.H.H.M.H.H.H.H.H.H.H.H.H.B.l.q.d ",
"9 3.K.H.S.S.H.H.H.H.H.H.H.H.H.H.H.H.H.H.H.H.H.H.H.H.H.H.H.H.H.B.H.H.H.H.H.H.H.H.H.H.l.a.M ",
"l a.K.H.S.H.H.H.H.H.H.H.H.H.H.H.H.H.H.H.H.H.H.H.H.H.H.H.H.H.H.B.H.H.H.H.H.H.H.H.H.H.v.l.A ",
"B M.H.H.H.H.H.H.H.H.H.H.H.H.H.H.H.H.H.H.H.H.H.H.H.H.H.H.H.H.H.S.H.H.H.H.H.H.H.H.H.H.M.v.P ",
"K S.H.H.H.H.H.H.H.H.H.H.H.H.H.H.H.H.H.H.H.H.H.H.H.H.H.H.H.H.H.S.H.H.H.H.H.H.H.H.H.H.B.v.P ",
"E S.H.H.H.H.H.H.H.H.H.H.H.H.H.H.H.H.H.H.H.H.H.H.H.H.H.H.H.H.H.H.H.H.H.H.H.H.H.H.H.H.B.v.P ",
"^ S.H.H.H.H.H.H.H.H.H.H.H.H.H.H.H.H.H.H.H.H.H.H.H.H.H.H.H.H.H.H.H.H.H.H.H.H.H.H.H.H.B.v.K ",
"W S.H.H.H.H.H.H.H.H.H.H.H.H.H.H.H.H.H.H.H.H.H.H.H.H.H.H.H.H.H.H.H.H.H.H.H.H.H.H.H.H.S.l.C ",
"K S.H.H.H.H.H.H.H.H.H.H.H.H.H.H.H.H.H.H.H.H.H.H.H.H.H.H.H.H.H.H.H.H.H.H.H.H.H.H.H.H.S.a.v ",
"B M.H.H.H.H.H.H.H.H.H.H.H.H.H.H.H.H.H.H.H.H.H.H.H.H.H.H.H.H.H.H.H.H.H.H.H.H.H.H.H.H.S.8.r ",
"l g.K.H.H.H.H.H.H.H.H.H.H.H.H.H.H.H.H.H.H.H.H.H.H.H.H.H.H.H.H.H.H.H.H.H.H.H.H.H.H.H.H.#.  ",
"9 3.K.H.H.H.H.H.H.H.H.H.H.H.H.H.H.H.H.H.H.H.H.H.H.H.H.H.H.H.H.H.H.H.H.H.H.H.H.H.H.H.S.T   ",
"  [ K.H.H.H.H.H.H.H.H.H.H.H.H.H.H.H.H.H.H.H.H.H.H.H.H.H.H.H.H.H.H.H.H.H.H.H.H.H.H.K.a.l   ",
"  G S.H.H.H.H.H.H.H.H.H.H.H.H.H.H.H.H.H.H.H.H.H.H.H.H.H.H.H.H.H.H.H.H.H.H.H.H.H.H.K. .    ",
"  r q.K.H.H.H.H.H.H.H.H.H.H.H.H.H.H.H.H.H.H.H.H.H.H.H.H.H.H.H.H.H.H.H.H.H.H.H.H.K.l.v     ",
"    ^ H.H.H.H.H.H.H.H.H.H.H.H.H.H.H.H.H.H.H.H.H.H.H.H.H.H.H.H.H.H.H.H.H.H.H.H.H.H.W       ",
"    i 0.K.H.H.H.H.H.H.H.H.K.K.K.K.H.H.H.H.H.H.H.H.H.H.H.H.H.H.H.H.H.H.H.H.H.K.H.[ 2       ",
"      V M.K.H.H.H.H.K.v.P ) 3.<.^ ) H.H.H.H.H.H.H.K.v.T 0.K.H.H.H.H.K.v.S.S.y.E 2         ",
"      % K v.K.K.K.K.l.G O O > = O 2 #.K.H.H.H.H.H.H.^ O d :.S.K.K.B. .d v v e O           ",
"        O v @.q.q.@.x %             e #.H.K.K.K.B.( >     2 B ^ W v =                     ",
"            % 2 2 %                   2 G %.<.X.M %           O X                         ",
"                                        X % = O                                           "
};
