/* XPM */
static char *fire_removebg_preview__1_1706969120[] = {
/* columns rows colors chars-per-pixel */
"45 45 101 2 ",
"   c None",
".  c #D5262C",
"X  c #DE2128",
"o  c #DA282E",
"O  c #CD2D32",
"+  c #D42D32",
"@  c #DC2C32",
"#  c #E62027",
"$  c #ED2126",
"%  c #ED2C25",
"&  c #E4252B",
"*  c #EA2329",
"=  c #E5292E",
"-  c #E92828",
";  c #EE3424",
":  c #EF3C24",
">  c #E6362E",
",  c #E9362B",
"<  c #F03B25",
"1  c #E22D33",
"2  c #E53130",
"3  c #EF4124",
"4  c #EE4E27",
"5  c #EA422C",
"6  c #EC4B2A",
"7  c #F04425",
"8  c #F14C25",
"9  c #ED5C2B",
"0  c #F15426",
"q  c #F15A27",
"w  c #F05128",
"e  c #F05C28",
"r  c #EB5F31",
"t  c #EF6927",
"y  c #EE6529",
"u  c #EC6F2E",
"i  c #F16326",
"p  c #F16A24",
"a  c #EF7327",
"s  c #ED702C",
"d  c #F27323",
"f  c #F47C21",
"g  c #EA7034",
"h  c #F6841F",
"j  c #F78C1F",
"k  c #F6941F",
"l  c #F79A1D",
"z  c #F89C1C",
"x  c #FAAE16",
"c  c #F9A319",
"v  c #FAAB19",
"b  c #FBB416",
"n  c #FABA15",
"m  c #F9B419",
"M  c #F8BD1B",
"N  c #EE812E",
"B  c #F58321",
"V  c #F58B22",
"C  c #EF992C",
"Z  c #F69222",
"A  c #F49C25",
"S  c #F3972A",
"D  c #F2982A",
"F  c #EC8731",
"G  c #EE9A33",
"H  c #F09632",
"J  c #F09830",
"K  c #F7A623",
"L  c #F7A825",
"P  c #F5A52B",
"I  c #F4B925",
"U  c #F5B52C",
"Y  c #F0AF31",
"T  c #FCC30E",
"R  c #FCC80F",
"E  c #FBC512",
"W  c #FCCD14",
"Q  c #F7CB1D",
"!  c #F9CA1C",
"~  c #FBD71C",
"^  c #FBDA1C",
"/  c #FBE41C",
"(  c #FAEA1F",
")  c #F6C027",
"_  c #F8CF26",
"`  c #F4C42E",
"'  c #F7CE2C",
"]  c #F9D523",
"[  c #F9DB2B",
"{  c #F7DC30",
"}  c #F9DA31",
"|  c #F9E223",
" . c #FAED25",
".. c #F8E32C",
"X. c #F9EB2B",
"o. c #F7E032",
"O. c #F8E230",
"+. c #F8EC32",
"@. c #F8E739",
"#. c #F8EB3F",
"$. c #F7ED42",
/* pixels */
"                                                                                          ",
"                                                                                          ",
"                                                                                          ",
"                                                                                          ",
"                                                                                          ",
"                                                                                          ",
"                                      $.                                                  ",
"                                      X.                                                  ",
"                                    +. ...                                                ",
"                                     .( |                                                 ",
"                                  +.( ^ ~ [             o.                                ",
"                                  X./ ^ W ]             Q                                 ",
"                                  X.^ ~ W E !           G                                 ",
"                                  ] ~ ~ E b x M                                           ",
"                                    ~ ~ E c z m U                                         ",
"                                    M W E c k z v           #.                            ",
"                    $.#.            M W E c k k z L       +...                            ",
"                      { @.        L b E n c k k k V       | [                             ",
"                      Y `         K n T b z k k k B u   ..~ !                             ",
"                                  z b b c z k k Z h y   } E E I                           ",
"                                J k c c z Z k k B d y g ' E n b                           ",
"                          #.    Z k l z k k k j f t q 9 I n b x A                         ",
"                        @...  g B Z k k k k k f d e 0 5 U m b v z D                       ",
"                      @.~ _   y d B k k k k j d i q w 5 U b b c Z Z                       ",
"                      ] n     e p f h k k j f p q 0 7 , P v v z k j a                     ",
"                    ' n K H r q i p d h j f p e q 8 : > G A z k k B s                     ",
"                    A z S   9 q q e i d d p e q 0 < ;   J k k k j d p                     ",
"                    f Z S   5 w q q q p p q q 0 < % *   V k k j B p e                     ",
"                    a B S   = 7 q q q q q q 0 < % $ 1   Z k k h d q e                     ",
"                    e d V   = < 0 q q 0 q q 7 % $ *   N V Z B d i 0 6                     ",
"                    w i d F 1 % 8 q q q q 8 % $ $ 1   a f f d i q 8 ,                     ",
"                    : 0 e u   * < 8 q 0 8 ; $ $ *   6 i d d i q 8 ; 1                     ",
"                    > < 0 e   & $ $ < 7 < % $ $ o   6 q i q 0 7 % =                       ",
"                      - < w     * $ $ % % $ $ &     : q 0 7 % $ $ 2                       ",
"                      1 * ; 6   = * $ $ $ $ $ +   = % 7 < $ $ * 1                         ",
"                        = $ % 1   = $ $ $ $ X     $ $ $ $ $ * 1                           ",
"                          & $ $ 1   @ * $ $ X   = $ $ $ & 1                               ",
"                            1 * $ 1   + & # +   & * & @                                   ",
"                                @ o +     . + O . +                                       ",
"                                      O                                                   ",
"                                                                                          ",
"                                                                                          ",
"                                                                                          ",
"                                                                                          ",
"                                                                                          "
};
